<?xml version="1.0" encoding="UTF-8" standalone="no"?>
<!DOCTYPE svg PUBLIC "-//W3C//DTD SVG 1.1//EN"
 "http://www.w3.org/Graphics/SVG/1.1/DTD/svg11.dtd">
<!-- Generated by graphviz version 5.0.0 (20220707.1540)
 -->
<!-- Title: dependencies Pages: 1 -->
<svg width="300pt" height="174pt"
 viewBox="0.00 0.00 300.00 173.80" xmlns="http://www.w3.org/2000/svg" xmlns:xlink="http://www.w3.org/1999/xlink">
<g id="graph0" class="graph" transform="scale(1 1) rotate(0) translate(4 169.8)">
<title>dependencies</title>
<polygon fill="white" stroke="transparent" points="-4,4 -4,-169.8 296,-169.8 296,4 -4,4"/>
<text text-anchor="middle" x="146" y="-8.2" font-family="sans-serif" font-size="14.00">dependencies</text>
<g id="clust1" class="cluster">
<title>cluster_HttpConfigModule</title>
<polygon fill="none" stroke="black" stroke-dasharray="1,5" points="8,-32.8 8,-157.8 284,-157.8 284,-32.8 8,-32.8"/>
</g>
<g id="clust4" class="cluster">
<title>cluster_HttpConfigModule_exports</title>
<polygon fill="none" stroke="black" points="16,-97.8 16,-149.8 276,-149.8 276,-97.8 16,-97.8"/>
</g>
<!-- ConfigService  -->
<g id="node1" class="node">
<title>ConfigService </title>
<polygon fill="#fb8072" stroke="black" points="268.37,-141.8 167.63,-141.8 167.63,-105.8 268.37,-105.8 268.37,-141.8"/>
<text text-anchor="middle" x="218" y="-119.6" font-family="Times,serif" font-size="14.00">ConfigService </text>
</g>
<!-- HttpConfigService  -->
<g id="node2" class="node">
<title>HttpConfigService </title>
<polygon fill="#fb8072" stroke="black" points="149.76,-141.8 24.24,-141.8 24.24,-105.8 149.76,-105.8 149.76,-141.8"/>
<text text-anchor="middle" x="87" y="-119.6" font-family="Times,serif" font-size="14.00">HttpConfigService </text>
</g>
<!-- HttpConfigModule -->
<g id="node3" class="node">
<title>HttpConfigModule</title>
<polygon fill="#8dd3c7" stroke="black" points="211.83,-76.8 208.83,-80.8 187.83,-80.8 184.83,-76.8 88.17,-76.8 88.17,-40.8 211.83,-40.8 211.83,-76.8"/>
<text text-anchor="middle" x="150" y="-54.6" font-family="Times,serif" font-size="14.00">HttpConfigModule</text>
</g>
<!-- HttpConfigModule&#45;&gt;ConfigService  -->
<g id="edge1" class="edge">
<title>HttpConfigModule&#45;&gt;ConfigService </title>
<path fill="none" stroke="black" stroke-dasharray="5,2" d="M189.74,-76.91C189.74,-76.91 189.74,-95.79 189.74,-95.79"/>
<polygon fill="black" stroke="black" points="186.24,-95.79 189.74,-105.79 193.24,-95.79 186.24,-95.79"/>
</g>
<!-- HttpConfigModule&#45;&gt;HttpConfigService  -->
<g id="edge2" class="edge">
<title>HttpConfigModule&#45;&gt;HttpConfigService </title>
<path fill="none" stroke="black" stroke-dasharray="5,2" d="M118.98,-76.91C118.98,-76.91 118.98,-95.79 118.98,-95.79"/>
<polygon fill="black" stroke="black" points="115.48,-95.79 118.98,-105.79 122.48,-95.79 115.48,-95.79"/>
</g>
</g>
</svg>
