<svg width="1124" height="1000" viewBox="0 0 1124 1000" fill="none" xmlns="http://www.w3.org/2000/svg">
<g clip-path="url(#clip0_1_46)">
<path fill-rule="evenodd" clip-rule="evenodd" d="M543.012 751.925C619.758 724.385 655.061 842.977 581.238 865.856C504.295 889.697 469.446 778.324 543.012 751.925ZM542.129 298.476C579.687 288.993 614.357 306.185 621.149 338.521C625.097 357.326 622.495 545.553 622.584 581.497C622.682 622.692 617.771 652.068 582.958 661.355C543.012 672.005 510.498 652.736 503.725 621.426C499.527 602.032 502.183 414.768 502.102 378.494C502.022 338.574 505.917 307.62 542.129 298.476ZM0.177368 900.062C0.177368 964.287 48.2879 1000 112.611 1000H1012.08C1099.35 1000 1159.27 931.497 1100.13 833.868L634.767 31.23C600.534 -10.3832 524.206 -10.4367 489.919 31.23C477.334 46.5152 466.3 69.5722 455.552 87.4421C371.701 226.925 273.35 403.128 190.525 546.979C179.509 566.114 168.671 583.975 157.299 604.323C146.095 624.367 135.935 642.041 124.117 661.711C100.748 700.615 80.9349 737.219 57.7264 776.462C38.5909 808.815 0.177368 866.898 0.177368 900.062Z" fill="#FEA500"/>
</g>
<defs>
<clipPath id="clip0_1_46">
<rect width="1124" height="1000" fill="white"/>
</clipPath>
</defs>
</svg>
