<svg width="2216" height="1363" viewBox="0 0 2216 1363" fill="none" xmlns="http://www.w3.org/2000/svg">
<path fill-rule="evenodd" clip-rule="evenodd" d="M128.305 443.815C96.7269 443.815 84.3129 455.337 57.3198 469.701C53.2634 471.857 52.4012 472.102 48.3841 474.287L26.8287 486.514C19.9702 490.404 13.6897 493.539 9.56483 500.8C9.31988 501.231 9.03575 501.828 8.7908 502.279L0.256836 520.778L1.98126 552.121C2.17722 552.611 2.48096 553.169 2.69651 553.649C9.36887 568.885 21.1459 583.288 32.5703 595.869L77.9639 651.844C78.2578 652.216 78.6791 652.735 78.9731 653.098L82.0104 656.821C82.3044 657.184 82.7257 657.693 83.0196 658.056L233.163 845.842C233.466 846.205 233.897 846.704 234.201 847.067L288.256 914.653C269.229 934.719 222.473 938.52 204.974 973.303L198.145 995.76C198.145 1001.7 205.121 1021.77 213.518 1032.2C242.862 1068.67 303.07 1037.16 346.828 1022.79L417.559 998.905C418.254 998.67 420.185 997.945 420.88 997.709L490.396 974.871C491.954 974.293 494.502 973.342 496.99 972.441L518.849 965.024C519.408 964.838 520.006 964.661 520.564 964.485C522.7 963.789 523.827 963.476 525.688 962.849L615.858 933.621C617.083 933.21 619.503 932.211 620.738 931.74L726.957 896.037C727.505 895.851 728.083 895.625 728.632 895.449L782.638 877.362C784.754 876.568 787.498 875.608 789.261 874.981L923.248 830.989C923.806 830.812 924.384 830.606 924.943 830.43C925.511 830.254 926.099 830.077 926.677 829.911L993.832 806.954C997.045 806.337 999.162 806.523 1002.41 806.523L971.972 857.188C970.758 859.177 970.513 859.618 969.386 861.352L953.503 888.277C953.249 888.698 952.916 889.276 952.671 889.698L931.243 924.588C930.537 925.636 930.106 926.204 929.401 927.253L888.994 992.732C870.192 1022.1 849.166 1050.75 877.286 1080.34L892.561 1089.84C896.793 1091.68 892.267 1090.39 897.381 1091.82C904.494 1093.81 912.431 1092.89 919.181 1090.52L1068.55 1014.58C1069.15 1014.27 1070.92 1013.39 1071.52 1013.05L1110.57 975.507C1110.92 975.194 1111.44 974.773 1111.78 974.469C1112.13 974.155 1112.66 973.744 1113.01 973.44L1165.53 920.071C1166.68 918.944 1167.75 917.7 1168.78 916.573L1182.62 901.122C1184.64 899.025 1185.59 898.173 1188.28 895.517L1207.77 874.452C1209.87 872.443 1210.24 872.228 1212.3 869.984L1258 823.307C1258.31 822.954 1258.74 822.455 1259.05 822.102L1348.23 728.806C1352.28 724.77 1354.99 722.281 1358.34 718.636L1402.61 670.538C1418.03 651.07 1439.03 636.089 1455.19 617.248L1458.14 613.436C1468.75 599.455 1483.62 589.118 1494.36 575.303C1494.65 574.93 1495.02 574.372 1495.31 574L1508.09 559.754C1520.19 548.692 1543.7 540.021 1558.92 531.732C1559.37 531.496 1559.94 531.183 1560.39 530.948C1560.85 530.713 1561.42 530.419 1561.87 530.183L1677.53 470.113C1679.35 469.133 1679.76 468.947 1682 467.82L1686.52 465.586C1686.98 465.351 1687.56 465.067 1688.02 464.841L1754.49 429.922C1755.09 429.598 1756.81 428.668 1757.4 428.325C1757.83 428.08 1758.39 427.747 1758.82 427.492C1759.24 427.247 1759.8 426.894 1760.22 426.649L1907.19 350.578C1907.62 350.333 1908.18 350 1908.62 349.755C1909.05 349.51 1909.61 349.177 1910.05 348.932L1945.62 330.434C1946.73 329.856 1961.96 318.961 1975.77 313.278C2010.84 298.816 2042.76 278.681 2075.42 259.732L2098.02 246.29C2105.77 242.018 2093.53 249.072 2100.91 244.673C2101.49 244.32 2103.1 243.272 2103.66 242.909L2121.59 229.3C2121.96 229.016 2122.5 228.624 2122.87 228.33L2188.86 165.908C2205.97 142.677 2218.48 114.371 2214.87 85.2025C2213.91 77.3935 2212.49 74.2778 2210.49 69.2809L2206.92 61.5895C2204.55 57.1903 2205.23 58.2191 2202.71 54.5449L2154.43 17.2051C2153.97 16.9797 2153.4 16.676 2152.93 16.4605L2148.2 14.4323C2146.12 13.6289 2145.3 13.4427 2143.17 12.6981L2100.74 3.31169C2094.23 1.47948 2100.74 0 2092.79 0H2016.19C2006.28 0 2007.75 1.75382 1999.49 3.56643C1991.43 5.33005 1985.46 3.59583 1978.02 4.6246C1966.91 6.17267 1978.11 7.4464 1950.8 8.95527C1942.34 9.42557 1946.35 9.308 1941.51 10.9344L1862.72 17.744C1836.27 20.5854 1831.22 15.2455 1800.16 25.0238L1695.43 66.7334C1694.82 67.047 1693.11 67.9778 1692.5 68.3011L1664.01 82.6158C1663.39 82.9196 1661.64 83.821 1661.02 84.1345L1595.64 115.615C1595.19 115.85 1594.61 116.154 1594.16 116.399C1593.71 116.634 1593.13 116.938 1592.69 117.183C1592.25 117.428 1591.68 117.741 1591.24 117.986L1452.24 190.755C1451.78 190.98 1451.19 191.265 1450.73 191.49C1450.27 191.725 1449.68 191.999 1449.22 192.235C1448.6 192.538 1446.81 193.41 1446.2 193.724L1427.34 204.149C1426.91 204.394 1426.34 204.717 1425.9 204.962L1386.87 224.509C1384.66 225.626 1384.2 225.832 1382.41 226.802L1376.65 230.054C1373.62 231.74 1372.31 232.416 1369.27 233.944C1363.66 236.756 1359.8 238.5 1354.34 241.547L1318.58 259.85C1318.15 260.095 1317.57 260.418 1317.15 260.673C1313.83 262.642 1317.08 260.898 1313.05 263.328C1309.22 265.65 1310.71 264.964 1305.52 267.071L1227.26 308.202C1226.7 308.575 1225.12 309.643 1224.54 309.996C1224.13 310.25 1223.56 310.593 1223.14 310.838L1212.69 316.158C1210.96 317.011 1208.39 318.294 1206.67 319.156L1184.15 330.424C1183.53 330.738 1181.77 331.639 1181.16 331.943L1102.28 372.467C1101.01 373.104 1099.53 373.848 1097.78 374.72C1097.32 374.956 1096.74 375.249 1096.28 375.475L1078.25 384.479C1077.82 384.724 1077.25 385.057 1076.82 385.302L1072.69 387.938C1072.28 388.192 1071.74 388.575 1071.33 388.82C1070.91 389.074 1070.35 389.427 1069.93 389.672C1069.5 389.927 1068.93 390.25 1068.49 390.495C1068.06 390.74 1067.48 391.044 1067.03 391.289L1053.47 398C1053.01 398.235 1052.43 398.529 1051.97 398.755C1051.51 398.99 1050.93 399.274 1050.47 399.509L899.527 478.353C897.802 479.274 895.265 480.518 893.54 481.37L756.86 551.954C756.399 552.19 755.811 552.474 755.351 552.699L719.412 570.825C718.971 571.07 718.413 571.403 717.972 571.648C716.257 572.599 714.494 573.598 713.641 574.078L584.887 641.311C575.452 646.014 563.832 654.734 554.288 658.036L544.373 656.635C538.622 653.872 534.653 651.246 529.637 648.503L501.546 633.777C491.259 628.603 482.646 624.361 472.995 619.53C463.579 614.827 454.614 609.752 444.679 605.039L416.648 590.274C416.187 590.039 415.609 589.745 415.149 589.51L403.558 583.082C402.96 582.759 401.255 581.809 400.657 581.475L394.886 578.242C394.436 578.007 393.858 577.703 393.407 577.468L302.081 531.359C302.032 531.33 296.761 528.146 296.476 527.959C293.39 525.912 295.085 526.284 289.716 523.452L270.973 515.163C270.512 514.938 269.934 514.644 269.473 514.409L237.189 497.125C236.729 496.9 236.151 496.606 235.69 496.381L195.578 475.668C192.844 473.973 191.61 473.248 188.494 471.484C179.627 466.468 136.702 443.815 128.305 443.815Z" fill="#0000FF"/>
<path d="M976.197 375.115L1019.79 390.808L1228.44 281.34C1224.79 280.735 1222.12 280.513 1217.93 279.994L1123.13 266.032C1122.78 265.969 1122.29 265.873 1121.95 265.805L1074.04 259.307C1071.8 258.936 1071.51 258.979 1069.39 258.758L1048.26 255.313C1045.5 254.986 1044.57 254.92 1042.44 254.612L1027.14 251.878C1026.02 251.688 1024.8 251.452 1023.63 251.314L968.737 244.005C968.401 243.987 967.924 243.987 967.582 243.964C967.25 243.942 966.771 243.932 966.433 243.904L926.891 239.713C926.43 239.789 925.125 240.077 924.676 240.164L813.813 263.426C809.435 265.094 805.402 268.138 803.467 272.5C802.076 275.637 803.291 272.845 802.532 275.824L801.498 288.231C806.811 318.094 833.133 325.249 858.905 333.822L915.708 353.625C916.643 353.916 917.171 354.052 918.106 354.342L948.328 364.94C948.687 365.075 949.178 365.26 949.542 365.39L972.577 373.863C974.106 374.362 974.477 374.508 976.197 375.115Z" fill="#0000FF"/>
<rect y="1213" width="2215.24" height="150" rx="75" fill="#0000FF"/>
</svg>
