<svg width="2153" height="1581" viewBox="0 0 2153 1581" fill="none" xmlns="http://www.w3.org/2000/svg">
<path fill-rule="evenodd" clip-rule="evenodd" d="M312.939 34.2872C288.749 13.9889 271.833 14.836 241.922 8.48837C237.429 7.53225 236.611 7.16565 232.129 6.25724L207.757 1.76872C200.003 0.339878 193.176 -1.29531 185.35 1.61492C184.885 1.78771 184.283 2.06292 183.806 2.25073L165.378 10.9358L146.552 36.0547C146.387 36.556 146.26 37.179 146.117 37.6854C141.435 53.6455 141.199 72.2489 141.864 89.2295L140.657 161.288C140.643 161.762 140.632 162.43 140.624 162.897L140.557 167.702C140.55 168.168 140.545 168.829 140.537 169.296L134.846 409.659C134.846 410.132 134.855 410.792 134.855 411.264L132.82 497.784C105.346 500.925 67.0853 473.783 31.3225 489.18L11.6561 501.993C7.83953 506.542 0.27905 526.405 0.0103341 539.788C-0.951354 586.586 65.4249 601.149 108.178 618.273L177.715 645.439C178.399 645.706 180.344 646.391 181.028 646.658L248.961 673.847C250.526 674.405 253.088 675.315 255.574 676.224L277.087 684.593C277.634 684.809 278.205 685.058 278.747 685.282C280.83 686.122 281.895 686.607 283.724 687.323L371.585 722.894C372.788 723.366 375.284 724.156 376.532 724.589L480.85 765.515C481.39 765.725 481.978 765.924 482.512 766.141L535.508 787C537.64 787.753 540.359 788.781 542.113 789.434L673.03 841.858C673.571 842.082 674.146 842.296 674.687 842.52C675.236 842.75 675.8 842.993 676.35 843.237L812.549 878.817C815.408 880.41 816.909 881.913 819.401 884.004L634.929 951.428C632.72 952.171 632.249 952.351 630.271 952.955L600.797 963.372C600.331 963.531 599.705 963.759 599.246 963.925L549.404 983.879C548.19 984.228 547.495 984.386 546.28 984.736L464.238 1020.92C430.959 1031.33 396.437 1039.76 398.958 1080.51L404.551 1097.6C406.609 1101.74 403.973 1097.84 406.971 1102.22C411.142 1108.31 417.813 1112.71 424.509 1115.23L588.741 1121.08C589.401 1121.22 591.326 1121.69 591.998 1121.81L646.049 1118.16C646.513 1118.14 647.182 1118.15 647.64 1118.14C648.112 1118.12 648.781 1118.15 649.247 1118.14L723.782 1111.02C725.385 1110.89 727.01 1110.63 728.522 1110.43L749.052 1107.48C751.946 1107.17 753.222 1107.13 756.993 1106.83L785.462 1103.22C788.359 1103.03 788.783 1103.1 791.809 1102.71L856.819 1096.33C857.278 1096.26 857.93 1096.15 858.397 1096.08L986.682 1081.94C992.376 1081.45 996.055 1081.28 1000.96 1080.64L1065.79 1072.25C1090.12 1067.25 1115.83 1069.27 1140.33 1065.23L1145.04 1064.21C1162.15 1060.31 1180.18 1061.95 1197.29 1058.27C1197.76 1058.18 1198.4 1057.99 1198.86 1057.89L1217.81 1055.19C1234.19 1054.5 1307.77 1032.96 1324.76 1036.4C1325.25 1036.5 1325.89 1036.63 1326.39 1036.74C1326.89 1036.85 1327.52 1037 1328.01 1037.11L1482.81 1050.25C1484.83 1050.67 1485.27 1050.8 1487.71 1051.37L1492.61 1052.57C1493.11 1052.68 1493.74 1052.84 1494.24 1052.96L1567.6 1068.94C1568.27 1069.07 1570.18 1069.47 1570.86 1069.58C1571.34 1069.67 1571.99 1069.78 1572.48 1069.86C1572.96 1069.94 1573.61 1070.03 1574.09 1070.11L1735.58 1106.31C1736.06 1106.4 1736.71 1106.5 1737.2 1106.6C1737.69 1106.69 1738.33 1106.79 1738.83 1106.89L1777.96 1115.58C1779.18 1115.85 1797.86 1117.29 1812.08 1121.81C1848.25 1133.28 1885.65 1138.38 1922.84 1144.85L1948.8 1149.08C1957.48 1150.79 1943.56 1148.33 1952.05 1149.7C1952.72 1149.81 1954.63 1150.04 1955.29 1150.12L1977.77 1151.22C1978.24 1151.24 1978.9 1151.28 1979.38 1151.3L2070.05 1145.9C2098.09 1139.1 2125.87 1125.46 2141.86 1100.79C2146.14 1094.2 2147.05 1090.9 2148.73 1085.78L2150.94 1077.59C2151.95 1072.7 2151.81 1073.93 2152.24 1069.49L2139.26 1009.85C2139.05 1009.38 2138.81 1008.79 2138.59 1008.32L2136.27 1003.72C2135.2 1001.77 2134.68 1001.1 2133.53 999.164L2107.06 964.698C2103.25 959.112 2109.19 962.161 2103.1 957.053L2044.42 907.815C2036.83 901.442 2036.83 903.73 2029.33 899.81C2022.03 895.984 2018.57 890.813 2012.21 886.821C2002.7 880.865 2010.46 889.04 1988.57 872.643C1981.79 867.562 1984.94 870.054 1980.19 868.189L1915.45 822.757C1893.37 807.935 1892.93 800.595 1862.85 788.121L1755.81 752.754C1755.14 752.603 1753.23 752.214 1752.56 752.071L1721.53 744.723C1720.86 744.558 1718.94 744.122 1718.26 743.965L1647.94 726.054C1647.45 725.945 1646.81 725.806 1646.31 725.704C1645.81 725.594 1645.17 725.455 1644.68 725.36C1644.18 725.264 1643.54 725.139 1643.05 725.043L1489.79 691.438C1489.29 691.315 1488.66 691.154 1488.16 691.031C1487.66 690.915 1487.03 690.747 1486.53 690.632C1485.86 690.467 1483.93 689.983 1483.26 689.833L1462.11 685.695C1461.62 685.606 1460.98 685.488 1460.49 685.392L1418.03 675.281C1415.61 674.713 1415.13 674.575 1413.13 674.166L1406.63 672.954C1403.22 672.299 1401.79 671.979 1398.47 671.192C1392.37 669.743 1388.29 668.598 1382.16 667.424L1342.99 658.457C1342.51 658.368 1341.86 658.244 1341.37 658.168C1337.56 657.542 1341.17 658.297 1336.52 657.563C1332.09 656.88 1333.68 657.318 1328.35 655.594L1241.95 636.794C1241.29 636.72 1239.39 636.524 1238.72 636.423C1238.24 636.354 1237.59 636.251 1237.11 636.168L1225.68 633.523C1223.81 633.068 1221.01 632.395 1219.14 631.953L1194.65 626.106C1193.97 625.949 1192.05 625.512 1191.38 625.348L1104.91 605.693C1103.53 605.362 1101.92 604.981 1100.01 604.522C1099.51 604.406 1098.88 604.26 1098.38 604.136L1078.78 599.446C1078.29 599.356 1077.64 599.246 1077.15 599.157L1072.3 598.524C1071.82 598.455 1071.16 598.401 1070.69 598.325C1070.2 598.249 1069.55 598.16 1069.07 598.077C1068.58 597.995 1067.93 597.877 1067.44 597.781C1066.95 597.692 1066.31 597.553 1065.81 597.451L1051.11 593.876C1050.6 593.76 1049.97 593.614 1049.47 593.49C1048.97 593.375 1048.34 593.221 1047.84 593.105L881.529 556.476C879.616 556.073 876.872 555.395 875.003 554.94L724.929 521.154C724.425 521.038 723.792 520.878 723.295 520.754L684.113 511.539C683.618 511.443 682.976 511.339 682.48 511.243C680.556 510.869 678.563 510.501 677.601 510.321L535.753 479.063C525.502 476.601 510.995 475.811 501.562 472.207L494.867 464.76C492.238 458.946 490.886 454.384 488.806 449.058L476.753 419.721C472.198 409.145 468.327 400.359 464.039 390.455C459.849 380.8 456.244 371.15 451.663 361.153L439.68 331.824C439.479 331.348 439.225 330.751 439.023 330.275L434.275 317.901C434.025 317.269 433.33 315.445 433.087 314.806L430.744 308.619C430.55 308.149 430.302 307.545 430.108 307.075L389.787 213.051C389.768 212.997 387.777 207.169 387.679 206.844C386.631 203.291 387.69 204.666 385.397 199.046L376.367 180.648C376.159 180.179 375.905 179.582 375.703 179.106L362.082 145.115C361.874 144.646 361.62 144.049 361.412 143.581L343.998 101.93C342.994 98.8742 342.514 97.5252 341.261 94.1715C337.693 84.6289 319.371 39.6846 312.939 34.2872Z" fill="#017F01"/>
<path d="M1023.99 517.449L1059.32 566.865L1333.83 631.953C1333.83 631.953 1299.33 590.737 1295.53 587.1L1210.31 502.257C1210 501.932 1209.57 501.469 1209.27 501.142L1165.97 458.893C1163.97 456.839 1163.67 456.673 1161.73 454.88L1142.88 435.602C1140.36 433.216 1139.5 432.466 1137.58 430.562L1124.03 416.337C1123.03 415.303 1121.96 414.151 1120.89 413.139L1071.22 364.884C1070.91 364.619 1070.45 364.27 1070.13 363.995C1069.82 363.728 1069.37 363.367 1069.05 363.09L1032.83 329.533C1032.36 329.282 1030.98 328.653 1030.52 328.423L914.432 273.632C909.537 272.309 904.403 272.782 900.735 276.266C898.098 278.771 900.423 276.524 898.459 279.313L892.318 292.481C885.028 329.868 907.33 357.103 928.515 385.529L974.831 449.198C975.608 450.206 976.059 450.744 976.836 451.753L1001.45 485.697C1001.74 486.11 1002.14 486.676 1002.43 487.087L1021.03 513.403C1022.29 515.079 1022.59 515.512 1023.99 517.449Z" fill="#017F01"/>
<rect y="1431" width="2152.24" height="150" rx="75" fill="#017F01"/>
<circle cx="1685" cy="1251" r="100" fill="#017F01"/>
</svg>
