<svg width="2219" height="1204" viewBox="0 0 2219 1204" fill="none" xmlns="http://www.w3.org/2000/svg">
<path d="M112.128 1.44601C142.694 0.619736 158.942 -4.16144 187.21 9.91406C194.727 13.6568 223.055 53.0675 228.756 61.5104C230.759 64.4779 231.541 65.6772 233.233 68.413L259.908 104.834C260.22 105.241 260.606 105.762 260.918 106.169L282.114 136.03C282.421 136.446 282.808 136.967 283.119 137.374L296.203 153.148C299.747 158.076 298.396 156.987 300.246 160.196C300.417 160.489 303.717 165.689 303.748 165.738L364.948 247.719C365.246 248.131 365.628 248.66 365.927 249.072L369.652 254.538C370.038 255.103 371.141 256.714 371.532 257.269L379.043 268.19C379.35 268.605 379.737 269.126 380.044 269.542L398.556 295.254C405.349 303.901 411.112 312.44 417.444 320.847C423.93 329.473 429.749 337.109 436.652 346.326L455.234 372.029C458.502 376.721 460.884 380.84 464.801 385.877L473.052 391.551C483.066 392.849 497.355 390.222 507.898 390.218L653.122 387.423C654.099 387.373 656.123 387.264 658.082 387.178C658.586 387.155 659.234 387.106 659.738 387.083L699.989 386.876L700.32 386.878C700.764 386.882 701.26 386.886 701.671 386.882L855.485 384.62C857.408 384.625 860.234 384.643 862.189 384.587L1032.45 381.29C1032.97 381.284 1033.62 381.288 1034.13 381.283C1034.64 381.286 1035.29 381.281 1035.81 381.275L1050.94 381.312C1051.45 381.293 1052.11 381.279 1052.6 381.252C1053.1 381.229 1053.76 381.193 1054.26 381.157C1054.74 381.126 1055.4 381.059 1055.89 381.019C1056.37 380.983 1057.02 380.881 1057.5 380.836L1062.37 380.316C1062.87 380.288 1063.52 380.243 1064.02 380.216L1084.17 380.192C1084.68 380.195 1085.33 380.19 1085.85 380.185C1087.81 380.186 1089.46 380.179 1090.89 380.176L1179.55 379.056C1180.24 379.06 1182.21 379.034 1182.91 379.029L1208.09 378.983C1210.01 378.975 1212.89 378.975 1214.81 378.98L1226.54 378.878C1227.03 378.846 1227.69 378.792 1228.17 378.748C1228.85 378.69 1230.74 378.437 1231.4 378.353L1319.8 376.418C1325.38 376.847 1323.74 376.793 1328.2 376.422C1332.9 376.046 1329.21 376.157 1333.06 375.875C1333.46 375.842 1333.97 375.815 1334.41 375.792L1334.71 375.776L1374.88 375.332C1381.12 375.037 1385.35 375.196 1391.62 375.177C1395.03 375.167 1396.5 375.143 1399.96 374.984L1406.57 374.64C1408.61 374.571 1409.11 374.592 1411.59 374.579L1455.24 374.476C1455.74 374.453 1456.39 374.417 1456.89 374.39L1478.42 373.465C1479.1 373.455 1481.1 373.473 1481.79 373.477C1482.3 373.471 1482.95 373.488 1483.47 373.482C1483.98 373.486 1484.63 373.494 1485.15 373.497L1642.01 370.314C1642.52 370.292 1643.16 370.264 1643.67 370.242C1644.17 370.219 1644.83 370.205 1645.33 370.195C1645.85 370.177 1646.5 370.162 1647.01 370.153L1719.57 371.115C1720.26 371.109 1722.23 371.084 1722.92 371.087L1754.8 370.973C1755.49 370.954 1757.44 370.885 1758.13 370.875L1870.47 380.219C1902.63 385.31 1904.77 392.344 1929.71 401.587L2003.28 430.613C2008.34 431.314 2004.69 429.629 2012.48 432.981C2037.6 443.802 2028.14 437.67 2038.78 441.237C2045.89 443.63 2050.47 447.847 2058.46 449.858C2066.67 451.917 2066.13 449.692 2075.01 454.111L2143.58 488.254C2150.69 491.796 2144.21 490.221 2149.21 494.76L2183.02 522.077C2184.59 523.692 2185.24 524.225 2186.74 525.87L2190.08 529.795C2190.4 530.198 2190.77 530.723 2191.09 531.13L2217.66 586.072C2218.28 590.488 2218.13 589.261 2218.29 594.256L2218.06 602.736C2217.62 608.1 2217.5 611.522 2214.88 618.94C2205.11 646.658 2181.29 666.419 2155.62 679.59L2068.73 706.055C2068.27 706.152 2067.61 706.263 2067.15 706.351L2045.03 710.542C2044.37 710.618 2042.47 710.84 2041.79 710.898C2041.44 710.924 2041.13 710.948 2040.86 710.969C2035.2 711.408 2043.91 710.887 2040.86 710.969C2040.38 710.982 2039.62 711.009 2038.48 711.057L2012.26 713.015C1974.58 715.422 1937.03 719.217 1899.18 716.528C1884.29 715.462 1865.8 718.424 1864.55 718.448L1824.46 719.154C1823.96 719.177 1823.31 719.226 1822.82 719.253C1822.31 719.276 1821.67 719.326 1821.17 719.353L1655.7 721.941C1655.22 721.972 1654.56 722.039 1654.07 722.07L1653.77 722.093C1653.33 722.125 1652.83 722.161 1652.43 722.183C1651.79 722.225 1650.04 722.284 1649.26 722.31L1649.11 722.315L1574.05 723.947C1573.53 723.944 1572.89 723.94 1572.37 723.946L1567.32 723.928C1564.82 723.941 1564.37 723.924 1562.3 723.989L729.793 711.392C729.201 711.283 728.596 711.179 728.009 711.084C727.43 710.993 726.821 710.919 726.242 710.828L586.694 690.487C584.835 690.263 581.952 689.899 579.703 689.666L523.297 681.785C522.727 681.698 522.109 681.643 521.535 681.565L410.537 666.18C409.223 666.051 406.611 665.867 405.331 665.69L311.586 651.661C309.64 651.393 308.492 651.171 306.27 650.842C305.691 650.751 305.078 650.642 304.495 650.56L281.621 647.456C279.379 647.198 277.082 646.953 275.429 646.777L274.636 646.692L202.227 636.152C201.5 636.052 199.449 635.841 198.721 635.741L124.758 625.597C79.1851 618.951 11.2439 620.322 1.23025 574.597C-1.63959 561.522 1.06403 540.442 3.71054 535.127L19.8334 518.068C51.0016 494.732 94.5501 512.169 120.527 502.687L102.264 418.093C102.153 417.633 101.99 416.994 101.88 416.534L51.1786 181.51C51.0771 181.055 50.927 180.411 50.8255 179.955L49.7661 175.269L49.7557 175.222C49.6549 174.769 49.5157 174.145 49.4217 173.696L33.7367 103.355C29.1175 87.0016 24.9948 68.8593 25.8129 52.2467C25.8339 51.7208 25.811 51.0855 25.8539 50.5596L38.281 21.7333L54.1656 8.978C54.5857 8.68371 55.1065 8.27536 55.5179 7.99861C62.4465 3.33809 69.4661 3.33081 77.3394 2.90585L102.085 1.56781C106.655 1.40248 107.536 1.56757 112.128 1.44601Z" fill="#0000FF"/>
<rect y="1054" width="2218.29" height="150" rx="75" fill="#0000FF"/>
<circle cx="1798" cy="874" r="100" fill="#0000FF"/>
<circle cx="818" cy="874" r="100" fill="#0000FF"/>
<circle cx="608" cy="874" r="100" fill="#0000FF"/>
</svg>
