<svg width="1707" height="1508" viewBox="0 0 1707 1508" fill="none" xmlns="http://www.w3.org/2000/svg">
<g clip-path="url(#clip0_1_62)">
<path fill-rule="evenodd" clip-rule="evenodd" d="M0 464.244C0 562.009 4.5869 609.002 41.8746 702.415C53.2652 730.948 66.6786 752.984 80.0102 777.634C94.4145 804.267 109.513 823.483 125.981 848.358C133.745 860.096 141.867 869.311 150.796 880.222L202.498 941.874C208.341 947.636 212.254 950.966 217.208 957.177L315.832 1058.59C323.218 1065.71 325.067 1065.87 332.412 1072.01L560.592 1273.91C567.008 1279.07 569.879 1283.06 576.284 1288.22C583.762 1294.25 585.172 1294.82 592.609 1301.91L667.797 1366.75C675.081 1372.92 676.91 1373.22 684.296 1380.25L716.312 1408.25C727.876 1417.56 735.712 1424.65 747.307 1433.94L777.597 1460.33C788.456 1470 797.139 1477.03 807.641 1486.95C869.467 1545.31 911.894 1469.42 988.778 1409.69L1357.76 1088.53C1362.81 1083.44 1365.89 1079.93 1371.05 1075.15L1416.1 1033.52C1436.37 1013.25 1454.16 995.466 1474.5 975.229C1485.55 964.226 1489.78 956.227 1501.11 945.153L1553.19 883.889C1595.96 830.205 1638.3 769.206 1664.18 704.816C1689.15 642.663 1703.67 579.192 1707 515.578V459.402C1703.89 400.344 1690.94 341.45 1667.51 283.69C1627.21 184.372 1552.39 96.5465 1455.84 48.6037C1344.62 -6.63319 1221.13 -16.3076 1103.97 27.9167C1026.31 57.236 973.934 105.965 921.037 165.043C907.48 180.173 861.703 242.612 856.83 260.868H850.159C840.066 223.069 751.924 119.716 706.842 87.4646C677.042 66.1442 642.84 43.8023 605.43 28.8463C469.876 -25.3588 294.981 0.497448 185.621 89.753C94.6801 163.991 41.4149 248.333 14.0263 364.916C7.43711 392.948 0 431.216 0 464.244Z" fill="#0000FF"/>
</g>
<defs>
<clipPath id="clip0_1_62">
<rect width="1707" height="1508" fill="white"/>
</clipPath>
</defs>
</svg>
