<svg width="20" height="18" viewBox="0 0 20 18" fill="none" xmlns="http://www.w3.org/2000/svg">
<path fill-rule="evenodd" clip-rule="evenodd" d="M11.875 4.32925C12.4238 4.16028 12.6393 4.17472 13.0945 3.71949C13.4212 3.39279 13.2624 3.09477 13.0031 2.83542C12.4748 2.30717 11.1672 2.17961 10.4725 2.31703C10.3511 2.12175 9.19647 0.431194 9.00915 0.243877C8.87742 0.112142 7.04416 0.133107 6.814 0C6.79284 0.136895 7.0247 0.716218 7.08916 0.884137L8.07342 3.53661C8.38921 4.43734 8.94619 5.77599 9.23298 6.64641C9.28876 6.8157 9.35805 6.94978 9.40547 7.10366C9.2994 7.12469 9.11124 7.13442 8.97865 7.14579L6.8445 7.34799C6.70695 7.36511 6.57005 7.3766 6.41768 7.38973C5.99432 7.42617 2.71289 7.69539 2.57612 7.77442L0.990726 5.45739L0.0151515 5.44256L0 12.3477L0.990791 12.3624C1.10835 12.2087 1.28842 11.9244 1.39279 11.7684L2.57612 10.0306C2.69088 10.097 2.8667 10.0859 3.00294 10.1001L4.28346 10.222C4.57319 10.2526 4.84032 10.2684 5.13716 10.2933C5.43584 10.3184 5.69271 10.3634 5.9908 10.3807L9.40547 10.7013L6.9407 17.3477C6.86971 17.5178 6.7899 17.6491 6.814 17.805C6.92059 17.7433 7.21835 17.7323 7.36282 17.7288C7.4956 17.7256 7.51376 17.7179 7.63713 17.7046C9.33304 17.5221 8.73393 17.9518 9.75822 16.5245C10.0046 16.1812 10.2633 15.8243 10.4725 15.488C12.0731 15.8046 13.8621 14.8531 13.0945 14.0855C12.6394 13.6303 12.4238 13.6447 11.875 13.4758C12.0005 13.3445 12.1391 13.1217 12.2547 12.9574L13.3827 11.3415C13.4477 11.2494 13.665 10.8999 13.7429 10.8271C13.8921 10.6876 15.5642 10.5609 15.8689 10.5268L17.4848 10.3317C17.8553 10.2792 18.1982 10.2449 18.5519 10.1506C19.1595 9.98865 19.4088 9.84437 19.8324 9.42082C20.0559 9.19732 20.0559 8.60768 19.8324 8.38424C19.1038 7.65562 18.4585 7.61114 17.4848 7.47339C17.2963 7.44675 17.1472 7.43728 16.9665 7.41696L15.8994 7.2819C15.6991 7.25714 15.5512 7.25029 15.3506 7.22188C13.5529 6.96748 13.9529 7.27341 13.3827 6.46347L12.2761 4.87807C12.1583 4.70812 12.0019 4.46203 11.875 4.32925Z" fill="#FF2C5C"/>
</svg>
