<svg width="1407" height="1478" viewBox="0 0 1407 1478" fill="none" xmlns="http://www.w3.org/2000/svg">
<g clip-path="url(#clip0_2_16)">
<path fill-rule="evenodd" clip-rule="evenodd" d="M1406.94 775.577C1406.94 637.574 1360.85 504.872 1308.28 417.862C1293.69 393.703 1279.15 371.751 1263.15 350.458L1151.58 233.828C1112.16 200.595 1068.62 183.415 1018.24 208.701C939.065 248.423 929.971 348.032 1006.83 406.721C1093.49 472.907 1160.41 595.017 1175.49 703.82C1184.56 769.348 1180.97 831.311 1166.94 888.803C1150.83 954.809 1122.41 1010.14 1085.46 1060.52C1034.91 1129.45 959.63 1185.98 879.607 1217.27C694.435 1289.65 496.635 1239.17 369.933 1112.39C231.92 974.296 189.943 771.344 267.29 586.193C286.736 539.653 322.545 485.775 357.385 448.1C365.561 439.265 376.512 427.984 386.095 420.547L416.882 395.071C525.845 290.8 384.548 121.631 255.919 234.108C244.539 244.051 236.922 249.701 226.13 260.582C153.206 334.176 97.5812 400.741 56.9611 500.899C45.92 528.122 34.879 555.765 27.1423 586.732C19.166 618.677 11.7887 650.003 7.43617 682.687C4.54115 704.389 4.13185 714.632 3.51291 738.161C3.01377 757.478 -2.13738 769.697 1.14698 793.476C4.93048 820.859 5.76904 857.786 12.3278 897.957C19.3557 940.973 34.3299 991.516 50.2726 1031.94C67.4031 1075.34 85.1326 1110.87 110.299 1150.08C202.072 1293.01 340.993 1402.08 507.976 1449.48C553.907 1462.52 658.098 1483.31 710.598 1476.75C728.717 1474.49 747.494 1477.28 765.294 1474.93C817.654 1468 860.66 1462.52 911.143 1445.73C1136.49 1370.78 1303.89 1212.55 1376.08 979.167C1392.74 925.35 1406.94 846.086 1406.94 775.577Z" fill="#008000"/>
<path fill-rule="evenodd" clip-rule="evenodd" d="M591.083 100.387V653.667C591.083 667.074 598.7 685.592 603.622 694.267C610.34 706.087 618.007 713.424 627.76 723.277C695.943 792.139 816.146 734.128 816.146 647.417V106.637C816.146 78.0259 798.856 46.8695 784.201 32.3045C741.385 -10.2624 669.618 -11.2606 623.018 32.2945C610.29 44.1941 591.083 77.1774 591.083 100.387Z" fill="#008000"/>
</g>
<defs>
<clipPath id="clip0_2_16">
<rect width="1407" height="1478" fill="white"/>
</clipPath>
</defs>
</svg>
