<svg width="1707" height="1388" viewBox="0 0 1707 1388" fill="none" xmlns="http://www.w3.org/2000/svg">
<g clip-path="url(#clip0_1_52)">
<path fill-rule="evenodd" clip-rule="evenodd" d="M1703.43 167.948C1692.03 168.896 1670.22 178.723 1658.69 183.217C1628.36 195.04 1542.75 217.289 1513.44 217.949C1549.04 187.001 1555.74 193.303 1600.6 138.448C1641.77 88.0881 1640.24 69.3541 1660.1 27.9613C1639.58 32.7447 1627.43 45.0477 1609.04 53.5759C1591.08 61.8944 1573.73 69.1843 1555.39 76.584C1519.26 91.1539 1476.41 102.059 1436.78 111.286C1406.71 66.3782 1316.12 21.1707 1253.25 8.17867C1133.36 -16.5871 1040.08 16.2375 950.631 88.4277C918.855 114.062 888.517 154.317 870.142 191.255C849.93 231.889 823.616 314.755 831.555 366.503C834.481 385.637 833.972 418.341 840.174 431.263C791.241 419.859 729.537 427.648 610.601 390.849C575.21 379.904 542.905 370.078 509.261 355.538C476.177 341.238 447.167 327.107 416.829 311.309C340.884 271.784 264.16 212.236 201.018 153.827C194.117 147.436 189.524 142.203 182.713 135.463C167.784 120.703 129.347 72.9591 116.904 64.6306C108.935 98.8133 40.26 190.027 83.1107 335.066C123.685 472.407 210.235 516.326 220.221 531.245C171.259 531.245 108.835 510.104 66.9032 487.925C66.9032 619.193 134.16 728.432 230.836 790.616C255.033 806.175 283.284 818.438 310.626 827.475L337.958 836.812C338.457 837.032 339.506 837.442 340.215 837.891C324.197 839.219 300.79 846.04 266.906 847.907C233.573 849.735 216.316 843.393 190.233 841.226C215.068 947.859 332.506 1054.77 446.518 1078.23C462.466 1081.5 492.105 1087.47 510.2 1087.87C487.052 1122.44 347.265 1187.23 294.259 1201.9C216.207 1223.5 165.067 1234.52 80.2347 1234.52C48.6484 1234.52 29.7446 1231.19 0.245361 1231.19L12.3886 1239.04C101.046 1289.27 120.199 1303.61 230.637 1340.77C411.237 1401.52 646.591 1402.99 828.06 1349.06C871.201 1336.25 914.061 1321.31 952.368 1303.4C973.14 1293.68 992.093 1286.5 1010.8 1275.17C1128.45 1203.89 1150.17 1191.92 1252.64 1090.37C1395.22 949.087 1505.59 702.209 1526.19 510.674C1532.2 454.871 1533.44 406.947 1533.44 344.603C1557.88 331.671 1606.77 286.264 1627.64 265.493C1636.98 256.196 1639.2 251.023 1647.57 242.085C1659.43 229.413 1699.59 182.278 1703.43 167.948Z" fill="#0000FF"/>
<path fill-rule="evenodd" clip-rule="evenodd" d="M1703.43 167.948H1706.75L1703.98 164.063L1703.43 167.948Z" fill="#0000FF"/>
</g>
<defs>
<clipPath id="clip0_1_52">
<rect width="1707" height="1388" fill="white"/>
</clipPath>
</defs>
</svg>
