<svg width="2159" height="1194" viewBox="0 0 2159 1194" fill="none" xmlns="http://www.w3.org/2000/svg">
<path fill-rule="evenodd" clip-rule="evenodd" d="M126.952 501.285C96.4333 502.543 83.9767 514.012 57.3167 528.767C53.3106 530.982 52.4675 531.249 48.4981 533.49L27.1786 545.995C20.3952 549.973 14.2005 553.209 9.92463 560.288C9.67072 560.709 9.37231 561.289 9.11762 561.728L0.132812 579.686L0.550397 609.469C0.720259 609.928 0.991552 610.448 1.18074 610.896C7.02214 625.141 17.8302 638.389 28.3699 649.915L70.0102 701.417C70.2794 701.76 70.6659 702.238 70.9355 702.571L73.7226 705.996C73.9922 706.33 74.3791 706.798 74.6487 707.132L212.272 879.997C212.551 880.33 212.947 880.788 213.227 881.122L262.775 943.336C243.586 963.206 198.248 968.689 179.95 1002.51L172.455 1024.17C172.218 1029.83 178.16 1048.67 185.86 1058.26C212.767 1091.83 272.211 1059.42 315.072 1043.99L384.382 1018.43C385.064 1018.17 386.958 1017.41 387.64 1017.15L455.734 992.633C457.263 992.02 459.763 991.013 462.204 990.056L483.625 982.121C484.172 981.921 484.757 981.729 485.304 981.539C487.396 980.792 488.497 980.448 490.321 979.777L578.631 948.348C579.831 947.907 582.21 946.859 583.421 946.362L687.5 908.125C688.037 907.926 688.605 907.688 689.142 907.498L742.057 888.12C744.134 887.28 746.824 886.256 748.553 885.589L879.797 838.351C880.344 838.161 880.911 837.942 881.458 837.752C882.014 837.561 882.589 837.37 883.155 837.188L1008.5 774.698C1011.63 773.982 1013.66 774.075 1016.81 773.945L915.336 939.973C914.083 941.915 913.829 942.345 912.67 944.042L896.248 970.318C895.985 970.729 895.64 971.293 895.386 971.704L868.996 1017.78C868.273 1018.81 867.834 1019.37 867.11 1020.4L825.645 1098.6C806.303 1127.32 784.841 1155.44 810.838 1182.5L825.222 1190.94C829.239 1192.53 824.916 1191.48 829.802 1192.64C836.597 1194.25 844.304 1193.05 850.923 1190.53L980.17 1089.09C980.76 1088.76 982.509 1087.85 983.1 1087.51L1022.34 1050.2C1022.68 1049.88 1023.2 1049.46 1023.55 1049.16C1023.9 1048.85 1024.43 1048.43 1024.78 1048.13L1077.66 995.209C1078.81 994.091 1079.91 992.862 1080.95 991.748L1094.93 976.481C1096.97 974.404 1097.92 973.554 1100.63 970.918L1120.3 950.079C1122.41 948.082 1122.78 947.862 1124.86 945.643L1170.89 899.367C1171.2 899.018 1171.63 898.525 1171.95 898.177L1261.86 805.769C1265.93 801.763 1268.65 799.285 1272.03 795.68L1316.73 748.107C1332.41 728.951 1353.3 713.847 1369.68 695.258L1372.68 691.51C1383.48 677.772 1398.27 667.334 1409.2 653.749C1409.49 653.383 1409.88 652.836 1410.17 652.47L1423.09 638.393C1435.23 627.375 1478.87 564.925 1493.91 556.424C1494.35 556.183 1494.92 555.861 1495.36 555.619C1495.81 555.377 1496.38 555.074 1496.82 554.832L1623.15 464.596C1624.95 463.591 1625.36 463.397 1627.56 462.235L1632.03 459.927C1632.48 459.684 1633.05 459.391 1633.51 459.158L1699.14 423.252C1699.73 422.92 1701.43 421.965 1702.01 421.615C1702.44 421.364 1702.99 421.025 1703.42 420.765C1703.83 420.515 1704.39 420.157 1704.81 419.906L1843.45 333.94C1843.87 333.689 1844.43 333.35 1844.86 333.099C1845.29 332.849 1845.84 332.509 1846.28 332.258L1881.39 313.223C1882.48 312.628 1897.64 301.644 1911.21 295.682C1945.68 280.511 1984.35 252.869 2016.67 233.521L2039.05 219.817C2046.71 215.44 2034.59 222.646 2041.91 218.162C2042.48 217.803 2044.08 216.741 2044.63 216.373L2062.5 202.697C2062.87 202.412 2063.41 202.017 2063.78 201.722L2130.04 139.642C2147.5 116.835 2160.13 104.232 2157.81 76.5957C2157.19 69.1967 2155.95 66.2859 2154.21 61.6065L2151.06 54.4239C2148.95 50.3285 2149.57 51.281 2147.27 47.8824L2102.1 14.2437C2101.67 14.0474 2101.13 13.7808 2100.69 13.5943L2096.19 11.8512C2094.22 11.1688 2093.43 11.0243 2091.4 10.3998L2050.77 3.15123C2044.55 1.66548 2050.9 -0.00267255 2043.22 0.313967L1969.19 3.36619C1959.61 3.76131 1960.96 5.37307 1952.9 7.42853C1945.05 9.42913 1939.34 8.01553 1932.11 9.29168C1921.31 11.2088 1932.09 11.9756 1905.64 14.5008C1897.44 15.2861 1901.32 15.014 1896.58 16.7559L1820.16 26.3812C1794.49 30.1411 1789.81 25.257 1759.41 35.8075L1656.53 79.705C1655.93 80.0278 1654.23 80.9827 1653.63 81.3149L1625.53 96.0835C1624.92 96.3974 1623.19 97.3257 1622.58 97.6489L1558.14 130.236C1557.69 130.478 1557.12 130.791 1556.68 131.042C1556.23 131.284 1555.66 131.596 1555.22 131.847C1554.79 132.098 1554.23 132.419 1553.79 132.67L1416.55 207.514C1416.1 207.747 1415.52 208.041 1415.06 208.274C1414.61 208.516 1414.03 208.801 1413.58 209.043C1412.97 209.357 1411.2 210.259 1410.6 210.582L1391.96 221.262C1391.53 221.513 1390.97 221.843 1390.53 222.094L1352.04 242.266C1349.85 243.418 1349.4 243.632 1347.63 244.627L1341.93 247.955C1338.94 249.681 1337.65 250.376 1334.65 251.954C1329.12 254.855 1325.32 256.67 1319.92 259.789L1284.63 278.646C1284.2 278.896 1283.63 279.227 1283.21 279.487C1279.92 281.495 1283.14 279.704 1279.14 282.179C1275.35 284.543 1276.82 283.83 1271.72 286.043L1194.44 328.336C1193.89 328.713 1192.32 329.793 1191.75 330.152C1191.34 330.411 1190.77 330.76 1190.36 331.01L1180.04 336.494C1178.34 337.374 1175.8 338.699 1174.11 339.589L1151.89 351.218C1151.28 351.541 1149.55 352.469 1148.94 352.783L1071.1 394.521C1069.84 395.178 1068.38 395.947 1066.65 396.847C1066.2 397.089 1065.63 397.392 1065.17 397.625L1047.39 406.919C1046.97 407.17 1046.4 407.51 1045.98 407.76L1041.89 410.435C1041.48 410.694 1040.94 411.079 1040.53 411.329C1040.12 411.588 1039.56 411.946 1039.15 412.196C1038.72 412.456 1038.16 412.787 1037.72 413.038C1037.3 413.288 1036.72 413.601 1036.28 413.852L1022.91 420.784C1022.45 421.026 1021.88 421.33 1021.43 421.563C1020.97 421.805 1020.4 422.098 1019.95 422.341L870.924 503.446C869.221 504.392 866.719 505.678 865.019 506.559L730.111 579.23C729.656 579.472 729.077 579.766 728.623 579.999L693.168 598.694C692.732 598.945 692.179 599.285 691.743 599.536C690.048 600.509 688.303 601.531 687.461 602.022L560.347 671.186C551.041 676.041 539.463 684.809 530.108 688.334L520.581 687.395C515.133 684.992 511.402 682.65 506.663 680.237L480.102 667.331C470.366 662.814 462.211 659.116 453.077 654.901C444.164 650.797 435.702 646.32 426.288 642.228L399.785 629.282C399.349 629.076 398.802 628.82 398.367 628.614L387.421 622.954C386.856 622.67 385.246 621.833 384.682 621.539L379.233 618.69C378.807 618.484 378.261 618.218 377.834 618.012L291.41 577.737C291.363 577.711 286.396 574.888 286.129 574.722C283.227 572.895 284.851 573.182 279.774 570.699L261.99 563.552C261.554 563.355 261.007 563.099 260.572 562.893L230.059 547.719C229.623 547.522 229.076 547.265 228.64 547.069L190.699 528.941C188.124 527.435 186.96 526.794 184.019 525.238C175.649 520.814 135.068 500.95 126.952 501.285Z" fill="#0000FF"/>
<path d="M956.988 384.412L1013.24 396.488L1261.95 265.877C1261.95 265.877 1211.18 259.035 1206.12 258.918L1090.73 253.966C1090.3 253.935 1089.7 253.885 1089.27 253.849L1031.16 251.934C1028.41 251.775 1028.08 251.85 1025.53 251.836L999.71 250.379C996.37 250.32 995.267 250.346 992.669 250.242L973.891 248.934C972.514 248.849 971.015 248.724 969.597 248.701L903.05 246.652C902.652 246.668 902.095 246.717 901.688 246.728C901.294 246.739 900.731 246.778 900.328 246.784L852.761 246.442C852.249 246.571 850.827 247.009 850.333 247.148L729.052 283.187C724.521 285.401 720.868 289.034 720.116 293.844C719.576 297.302 720.03 294.226 720.172 297.452L723.248 310.668C739.748 341.673 772.918 346.512 805.936 352.906L879.022 367.959C880.213 368.169 880.876 368.258 882.067 368.469L920.973 376.543C921.438 376.647 922.075 376.793 922.543 376.892L952.334 383.464C954.29 383.833 954.773 383.949 956.988 384.412Z" fill="#0000FF"/>
</svg>
