<?xml version="1.0" encoding="UTF-8" standalone="no"?>
<!DOCTYPE svg PUBLIC "-//W3C//DTD SVG 1.1//EN"
 "http://www.w3.org/Graphics/SVG/1.1/DTD/svg11.dtd">
<!-- Generated by graphviz version 5.0.0 (20220707.1540)
 -->
<!-- Title: dependencies Pages: 1 -->
<svg width="1898pt" height="174pt"
 viewBox="0.00 0.00 1898.00 173.80" xmlns="http://www.w3.org/2000/svg" xmlns:xlink="http://www.w3.org/1999/xlink">
<g id="graph0" class="graph" transform="scale(1 1) rotate(0) translate(4 169.8)">
<title>dependencies</title>
<polygon fill="white" stroke="transparent" points="-4,4 -4,-169.8 1894,-169.8 1894,4 -4,4"/>
<text text-anchor="middle" x="945" y="-8.2" font-family="sans-serif" font-size="14.00">dependencies</text>
<g id="clust1" class="cluster">
<title>cluster_LayerModule</title>
<polygon fill="none" stroke="black" stroke-dasharray="1,5" points="8,-32.8 8,-157.8 1882,-157.8 1882,-32.8 8,-32.8"/>
</g>
<g id="clust6" class="cluster">
<title>cluster_LayerModule_providers</title>
<polygon fill="none" stroke="black" points="16,-40.8 16,-92.8 1874,-92.8 1874,-40.8 16,-40.8"/>
</g>
<!-- AplService -->
<g id="node1" class="node">
<title>AplService</title>
<ellipse fill="#fdb462" stroke="black" cx="1812" cy="-66.8" rx="54.46" ry="18"/>
<text text-anchor="middle" x="1812" y="-62.6" font-family="Times,serif" font-size="14.00">AplService</text>
</g>
<!-- LayerModule -->
<g id="node12" class="node">
<title>LayerModule</title>
<polygon fill="#8dd3c7" stroke="black" points="1044.19,-149.8 1041.19,-153.8 1020.19,-153.8 1017.19,-149.8 951.81,-149.8 951.81,-113.8 1044.19,-113.8 1044.19,-149.8"/>
<text text-anchor="middle" x="998" y="-127.6" font-family="Times,serif" font-size="14.00">LayerModule</text>
</g>
<!-- AplService&#45;&gt;LayerModule -->
<g id="edge1" class="edge">
<title>AplService&#45;&gt;LayerModule</title>
<path fill="none" stroke="black" d="M1812,-84.89C1812,-107.93 1812,-144.8 1812,-144.8 1812,-144.8 1054.39,-144.8 1054.39,-144.8"/>
<polygon fill="black" stroke="black" points="1054.39,-141.3 1044.39,-144.8 1054.39,-148.3 1054.39,-141.3"/>
</g>
<!-- AssetService -->
<g id="node2" class="node">
<title>AssetService</title>
<ellipse fill="#fdb462" stroke="black" cx="1678" cy="-66.8" rx="61.41" ry="18"/>
<text text-anchor="middle" x="1678" y="-62.6" font-family="Times,serif" font-size="14.00">AssetService</text>
</g>
<!-- AssetService&#45;&gt;LayerModule -->
<g id="edge2" class="edge">
<title>AssetService&#45;&gt;LayerModule</title>
<path fill="none" stroke="black" d="M1678,-85.08C1678,-106.12 1678,-137.8 1678,-137.8 1678,-137.8 1054.2,-137.8 1054.2,-137.8"/>
<polygon fill="black" stroke="black" points="1054.2,-134.3 1044.2,-137.8 1054.2,-141.3 1054.2,-134.3"/>
</g>
<!-- CustomerService -->
<g id="node3" class="node">
<title>CustomerService</title>
<ellipse fill="#fdb462" stroke="black" cx="1521" cy="-66.8" rx="77.59" ry="18"/>
<text text-anchor="middle" x="1521" y="-62.6" font-family="Times,serif" font-size="14.00">CustomerService</text>
</g>
<!-- CustomerService&#45;&gt;LayerModule -->
<g id="edge3" class="edge">
<title>CustomerService&#45;&gt;LayerModule</title>
<path fill="none" stroke="black" d="M1521,-84.91C1521,-104.14 1521,-131.8 1521,-131.8 1521,-131.8 1054.41,-131.8 1054.41,-131.8"/>
<polygon fill="black" stroke="black" points="1054.41,-128.3 1044.41,-131.8 1054.41,-135.3 1054.41,-128.3"/>
</g>
<!-- EventDetailService -->
<g id="node4" class="node">
<title>EventDetailService</title>
<ellipse fill="#fdb462" stroke="black" cx="1339" cy="-66.8" rx="86.23" ry="18"/>
<text text-anchor="middle" x="1339" y="-62.6" font-family="Times,serif" font-size="14.00">EventDetailService</text>
</g>
<!-- EventDetailService&#45;&gt;LayerModule -->
<g id="edge4" class="edge">
<title>EventDetailService&#45;&gt;LayerModule</title>
<path fill="none" stroke="black" d="M1339,-84.82C1339,-102.17 1339,-125.8 1339,-125.8 1339,-125.8 1054.34,-125.8 1054.34,-125.8"/>
<polygon fill="black" stroke="black" points="1054.34,-122.3 1044.34,-125.8 1054.34,-129.3 1054.34,-122.3"/>
</g>
<!-- GeofenceService -->
<g id="node5" class="node">
<title>GeofenceService</title>
<ellipse fill="#fdb462" stroke="black" cx="1158" cy="-66.8" rx="76.97" ry="18"/>
<text text-anchor="middle" x="1158" y="-62.6" font-family="Times,serif" font-size="14.00">GeofenceService</text>
</g>
<!-- GeofenceService&#45;&gt;LayerModule -->
<g id="edge5" class="edge">
<title>GeofenceService&#45;&gt;LayerModule</title>
<path fill="none" stroke="black" d="M1158,-85.04C1158,-100.37 1158,-119.8 1158,-119.8 1158,-119.8 1054.28,-119.8 1054.28,-119.8"/>
<polygon fill="black" stroke="black" points="1054.28,-116.3 1044.28,-119.8 1054.28,-123.3 1054.28,-116.3"/>
</g>
<!-- GroupService -->
<g id="node6" class="node">
<title>GroupService</title>
<ellipse fill="#fdb462" stroke="black" cx="998" cy="-66.8" rx="64.84" ry="18"/>
<text text-anchor="middle" x="998" y="-62.6" font-family="Times,serif" font-size="14.00">GroupService</text>
</g>
<!-- GroupService&#45;&gt;LayerModule -->
<g id="edge6" class="edge">
<title>GroupService&#45;&gt;LayerModule</title>
<path fill="none" stroke="black" d="M998,-84.91C998,-84.91 998,-103.79 998,-103.79"/>
<polygon fill="black" stroke="black" points="994.5,-103.79 998,-113.79 1001.5,-103.79 994.5,-103.79"/>
</g>
<!-- LandmarkService -->
<g id="node7" class="node">
<title>LandmarkService</title>
<ellipse fill="#fdb462" stroke="black" cx="836" cy="-66.8" rx="79.85" ry="18"/>
<text text-anchor="middle" x="836" y="-62.6" font-family="Times,serif" font-size="14.00">LandmarkService</text>
</g>
<!-- LandmarkService&#45;&gt;LayerModule -->
<g id="edge7" class="edge">
<title>LandmarkService&#45;&gt;LayerModule</title>
<path fill="none" stroke="black" d="M836,-85.04C836,-100.37 836,-119.8 836,-119.8 836,-119.8 941.58,-119.8 941.58,-119.8"/>
<polygon fill="black" stroke="black" points="941.58,-123.3 951.58,-119.8 941.58,-116.3 941.58,-123.3"/>
</g>
<!-- LayerService -->
<g id="node8" class="node">
<title>LayerService</title>
<ellipse fill="#fdb462" stroke="black" cx="676" cy="-66.8" rx="62.52" ry="18"/>
<text text-anchor="middle" x="676" y="-62.6" font-family="Times,serif" font-size="14.00">LayerService</text>
</g>
<!-- LayerService&#45;&gt;LayerModule -->
<g id="edge8" class="edge">
<title>LayerService&#45;&gt;LayerModule</title>
<path fill="none" stroke="black" d="M676,-84.82C676,-102.17 676,-125.8 676,-125.8 676,-125.8 941.87,-125.8 941.87,-125.8"/>
<polygon fill="black" stroke="black" points="941.87,-129.3 951.87,-125.8 941.87,-122.3 941.87,-129.3"/>
</g>
<!-- NotificationService -->
<g id="node9" class="node">
<title>NotificationService</title>
<ellipse fill="#fdb462" stroke="black" cx="509" cy="-66.8" rx="86.81" ry="18"/>
<text text-anchor="middle" x="509" y="-62.6" font-family="Times,serif" font-size="14.00">NotificationService</text>
</g>
<!-- NotificationService&#45;&gt;LayerModule -->
<g id="edge9" class="edge">
<title>NotificationService&#45;&gt;LayerModule</title>
<path fill="none" stroke="black" d="M509,-84.91C509,-104.14 509,-131.8 509,-131.8 509,-131.8 941.56,-131.8 941.56,-131.8"/>
<polygon fill="black" stroke="black" points="941.56,-135.3 951.56,-131.8 941.56,-128.3 941.56,-135.3"/>
</g>
<!-- NotificationTemplateService -->
<g id="node10" class="node">
<title>NotificationTemplateService</title>
<ellipse fill="#fdb462" stroke="black" cx="281" cy="-66.8" rx="123.24" ry="18"/>
<text text-anchor="middle" x="281" y="-62.6" font-family="Times,serif" font-size="14.00">NotificationTemplateService</text>
</g>
<!-- NotificationTemplateService&#45;&gt;LayerModule -->
<g id="edge10" class="edge">
<title>NotificationTemplateService&#45;&gt;LayerModule</title>
<path fill="none" stroke="black" d="M281,-85.08C281,-106.12 281,-137.8 281,-137.8 281,-137.8 941.78,-137.8 941.78,-137.8"/>
<polygon fill="black" stroke="black" points="941.78,-141.3 951.78,-137.8 941.78,-134.3 941.78,-141.3"/>
</g>
<!-- UserService -->
<g id="node11" class="node">
<title>UserService</title>
<ellipse fill="#fdb462" stroke="black" cx="82" cy="-66.8" rx="58.46" ry="18"/>
<text text-anchor="middle" x="82" y="-62.6" font-family="Times,serif" font-size="14.00">UserService</text>
</g>
<!-- UserService&#45;&gt;LayerModule -->
<g id="edge11" class="edge">
<title>UserService&#45;&gt;LayerModule</title>
<path fill="none" stroke="black" d="M82,-84.89C82,-107.93 82,-144.8 82,-144.8 82,-144.8 941.63,-144.8 941.63,-144.8"/>
<polygon fill="black" stroke="black" points="941.63,-148.3 951.63,-144.8 941.63,-141.3 941.63,-148.3"/>
</g>
</g>
</svg>
