<?xml version="1.0" encoding="UTF-8" standalone="no"?>
<!DOCTYPE svg PUBLIC "-//W3C//DTD SVG 1.1//EN"
 "http://www.w3.org/Graphics/SVG/1.1/DTD/svg11.dtd">
<!-- Generated by graphviz version 5.0.0 (20220707.1540)
 -->
<!-- Title: dependencies Pages: 1 -->
<svg width="298pt" height="247pt"
 viewBox="0.00 0.00 298.00 246.80" xmlns="http://www.w3.org/2000/svg" xmlns:xlink="http://www.w3.org/1999/xlink">
<g id="graph0" class="graph" transform="scale(1 1) rotate(0) translate(4 242.8)">
<title>dependencies</title>
<polygon fill="white" stroke="transparent" points="-4,4 -4,-242.8 294,-242.8 294,4 -4,4"/>
<text text-anchor="middle" x="145" y="-8.2" font-family="sans-serif" font-size="14.00">dependencies</text>
<g id="clust1" class="cluster">
<title>cluster_AppConfigModule</title>
<polygon fill="none" stroke="black" stroke-dasharray="1,5" points="8,-32.8 8,-230.8 282,-230.8 282,-32.8 8,-32.8"/>
</g>
<g id="clust4" class="cluster">
<title>cluster_AppConfigModule_exports</title>
<polygon fill="none" stroke="black" points="16,-170.8 16,-222.8 274,-222.8 274,-170.8 16,-170.8"/>
</g>
<g id="clust6" class="cluster">
<title>cluster_AppConfigModule_providers</title>
<polygon fill="none" stroke="black" points="54,-40.8 54,-92.8 236,-92.8 236,-40.8 54,-40.8"/>
</g>
<!-- AppConfigService  -->
<g id="node1" class="node">
<title>AppConfigService </title>
<polygon fill="#fb8072" stroke="black" points="266.48,-214.8 141.52,-214.8 141.52,-178.8 266.48,-178.8 266.48,-214.8"/>
<text text-anchor="middle" x="204" y="-192.6" font-family="Times,serif" font-size="14.00">AppConfigService </text>
</g>
<!-- ConfigService  -->
<g id="node2" class="node">
<title>ConfigService </title>
<polygon fill="#fb8072" stroke="black" points="124.37,-214.8 23.63,-214.8 23.63,-178.8 124.37,-178.8 124.37,-214.8"/>
<text text-anchor="middle" x="74" y="-192.6" font-family="Times,serif" font-size="14.00">ConfigService </text>
</g>
<!-- AppConfigModule -->
<g id="node3" class="node">
<title>AppConfigModule</title>
<polygon fill="#8dd3c7" stroke="black" points="206.05,-149.8 203.05,-153.8 182.05,-153.8 179.05,-149.8 83.95,-149.8 83.95,-113.8 206.05,-113.8 206.05,-149.8"/>
<text text-anchor="middle" x="145" y="-127.6" font-family="Times,serif" font-size="14.00">AppConfigModule</text>
</g>
<!-- AppConfigModule&#45;&gt;AppConfigService  -->
<g id="edge1" class="edge">
<title>AppConfigModule&#45;&gt;AppConfigService </title>
<path fill="none" stroke="black" stroke-dasharray="5,2" d="M174.02,-149.91C174.02,-149.91 174.02,-168.79 174.02,-168.79"/>
<polygon fill="black" stroke="black" points="170.52,-168.79 174.02,-178.79 177.52,-168.79 170.52,-168.79"/>
</g>
<!-- AppConfigModule&#45;&gt;ConfigService  -->
<g id="edge2" class="edge">
<title>AppConfigModule&#45;&gt;ConfigService </title>
<path fill="none" stroke="black" stroke-dasharray="5,2" d="M103.95,-149.91C103.95,-149.91 103.95,-168.79 103.95,-168.79"/>
<polygon fill="black" stroke="black" points="100.45,-168.79 103.95,-178.79 107.45,-168.79 100.45,-168.79"/>
</g>
<!-- AppConfigService -->
<g id="node4" class="node">
<title>AppConfigService</title>
<ellipse fill="#fdb462" stroke="black" cx="145" cy="-66.8" rx="83.4" ry="18"/>
<text text-anchor="middle" x="145" y="-62.6" font-family="Times,serif" font-size="14.00">AppConfigService</text>
</g>
<!-- AppConfigService&#45;&gt;AppConfigModule -->
<g id="edge3" class="edge">
<title>AppConfigService&#45;&gt;AppConfigModule</title>
<path fill="none" stroke="black" d="M145,-84.91C145,-84.91 145,-103.79 145,-103.79"/>
<polygon fill="black" stroke="black" points="141.5,-103.79 145,-113.79 148.5,-103.79 141.5,-103.79"/>
</g>
</g>
</svg>
