<?xml version="1.0" encoding="UTF-8" standalone="no"?>
<!DOCTYPE svg PUBLIC "-//W3C//DTD SVG 1.1//EN"
 "http://www.w3.org/Graphics/SVG/1.1/DTD/svg11.dtd">
<!-- Generated by graphviz version 5.0.0 (20220707.1540)
 -->
<!-- Title: dependencies Pages: 1 -->
<svg width="298pt" height="174pt"
 viewBox="0.00 0.00 298.00 173.80" xmlns="http://www.w3.org/2000/svg" xmlns:xlink="http://www.w3.org/1999/xlink">
<g id="graph0" class="graph" transform="scale(1 1) rotate(0) translate(4 169.8)">
<title>dependencies</title>
<polygon fill="white" stroke="transparent" points="-4,4 -4,-169.8 294,-169.8 294,4 -4,4"/>
<text text-anchor="middle" x="145" y="-8.2" font-family="sans-serif" font-size="14.00">dependencies</text>
<g id="clust1" class="cluster">
<title>cluster_AppConfigModule</title>
<polygon fill="none" stroke="black" stroke-dasharray="1,5" points="8,-32.8 8,-157.8 282,-157.8 282,-32.8 8,-32.8"/>
</g>
<g id="clust4" class="cluster">
<title>cluster_AppConfigModule_exports</title>
<polygon fill="none" stroke="black" points="16,-97.8 16,-149.8 274,-149.8 274,-97.8 16,-97.8"/>
</g>
<!-- AppConfigService  -->
<g id="node1" class="node">
<title>AppConfigService </title>
<polygon fill="#fb8072" stroke="black" points="266.48,-141.8 141.52,-141.8 141.52,-105.8 266.48,-105.8 266.48,-141.8"/>
<text text-anchor="middle" x="204" y="-119.6" font-family="Times,serif" font-size="14.00">AppConfigService </text>
</g>
<!-- ConfigService  -->
<g id="node2" class="node">
<title>ConfigService </title>
<polygon fill="#fb8072" stroke="black" points="124.37,-141.8 23.63,-141.8 23.63,-105.8 124.37,-105.8 124.37,-141.8"/>
<text text-anchor="middle" x="74" y="-119.6" font-family="Times,serif" font-size="14.00">ConfigService </text>
</g>
<!-- AppConfigModule -->
<g id="node3" class="node">
<title>AppConfigModule</title>
<polygon fill="#8dd3c7" stroke="black" points="201.05,-76.8 198.05,-80.8 177.05,-80.8 174.05,-76.8 78.95,-76.8 78.95,-40.8 201.05,-40.8 201.05,-76.8"/>
<text text-anchor="middle" x="140" y="-54.6" font-family="Times,serif" font-size="14.00">AppConfigModule</text>
</g>
<!-- AppConfigModule&#45;&gt;AppConfigService  -->
<g id="edge1" class="edge">
<title>AppConfigModule&#45;&gt;AppConfigService </title>
<path fill="none" stroke="black" stroke-dasharray="5,2" d="M171.52,-76.91C171.52,-76.91 171.52,-95.79 171.52,-95.79"/>
<polygon fill="black" stroke="black" points="168.02,-95.79 171.52,-105.79 175.02,-95.79 168.02,-95.79"/>
</g>
<!-- AppConfigModule&#45;&gt;ConfigService  -->
<g id="edge2" class="edge">
<title>AppConfigModule&#45;&gt;ConfigService </title>
<path fill="none" stroke="black" stroke-dasharray="5,2" d="M101.45,-76.91C101.45,-76.91 101.45,-95.79 101.45,-95.79"/>
<polygon fill="black" stroke="black" points="97.95,-95.79 101.45,-105.79 104.95,-95.79 97.95,-95.79"/>
</g>
</g>
</svg>
