<svg width="66" height="46" viewBox="0 0 66 46" fill="none" xmlns="http://www.w3.org/2000/svg">
<path d="M8.60739 37H3.50008C2.94779 37 2.50008 36.5523 2.50008 36V25.2208C2.50008 24.7903 2.22465 24.4082 1.8163 24.2721L0.846126 23.9487C-0.0655701 23.6448 -0.0655711 22.3552 0.846125 22.0513L1.8163 21.7279C2.22465 21.5918 2.50008 21.2097 2.50008 20.7792V10.1868C2.50008 9.77303 2.75491 9.40199 3.1411 9.25345L8.30739 7.26642C8.71873 7.10821 9.18514 7.23794 9.45572 7.58582L13.2908 12.5166C13.9446 13.3573 15.2846 12.7294 15.057 11.689L12.7656 1.2137C12.6292 0.590053 13.1041 0 13.7425 0H20.03C20.3277 0 20.61 0.132696 20.8 0.361982L34.7836 17.2388C34.924 17.4082 35.1163 17.5266 35.3308 17.5756L64.7415 22C65.8225 22.2471 65.7578 23.8432 64.6601 24L35.3485 30.4502C35.123 30.4824 34.9153 30.5907 34.7596 30.757L20.7965 45.6832C20.6074 45.8853 20.343 46 20.0662 46H13.7511C13.1099 46 12.6344 45.4051 12.7756 44.7797L15.2885 33.6515C15.505 32.6926 14.3529 32.0295 13.6326 32.6984L9.28784 36.7328C9.10287 36.9045 8.8598 37 8.60739 37Z" fill="#50B9E8"/>
</svg>
