<?xml version="1.0" encoding="UTF-8" standalone="no"?>
<!DOCTYPE svg PUBLIC "-//W3C//DTD SVG 1.1//EN"
 "http://www.w3.org/Graphics/SVG/1.1/DTD/svg11.dtd">
<!-- Generated by graphviz version 5.0.0 (20220707.1540)
 -->
<!-- Title: dependencies Pages: 1 -->
<svg width="1232pt" height="250pt"
 viewBox="0.00 0.00 1232.00 249.80" xmlns="http://www.w3.org/2000/svg" xmlns:xlink="http://www.w3.org/1999/xlink">
<g id="graph0" class="graph" transform="scale(1 1) rotate(0) translate(4 245.8)">
<title>dependencies</title>
<polygon fill="white" stroke="transparent" points="-4,4 -4,-245.8 1228,-245.8 1228,4 -4,4"/>
<text text-anchor="middle" x="612" y="-8.2" font-family="sans-serif" font-size="14.00">dependencies</text>
<g id="clust1" class="cluster">
<title>cluster_AppConfigModule</title>
<polygon fill="none" stroke="black" stroke-dasharray="1,5" points="558,-32.8 558,-233.8 832,-233.8 832,-32.8 558,-32.8"/>
</g>
<g id="clust4" class="cluster">
<title>cluster_AppConfigModule_exports</title>
<polygon fill="none" stroke="black" points="566,-173.8 566,-225.8 824,-225.8 824,-173.8 566,-173.8"/>
</g>
<g id="clust6" class="cluster">
<title>cluster_AppConfigModule_providers</title>
<polygon fill="none" stroke="black" points="566,-40.8 566,-92.8 748,-92.8 748,-40.8 566,-40.8"/>
</g>
<g id="clust7" class="cluster">
<title>cluster_AppModule</title>
<polygon fill="none" stroke="black" stroke-dasharray="1,5" points="174,-100.8 174,-225.8 550,-225.8 550,-100.8 174,-100.8"/>
</g>
<g id="clust9" class="cluster">
<title>cluster_AppModule_imports</title>
<polygon fill="none" stroke="black" points="320,-108.8 320,-160.8 542,-160.8 542,-108.8 320,-108.8"/>
</g>
<g id="clust12" class="cluster">
<title>cluster_AppModule_providers</title>
<polygon fill="none" stroke="black" points="182,-108.8 182,-160.8 312,-160.8 312,-108.8 182,-108.8"/>
</g>
<g id="clust13" class="cluster">
<title>cluster_HttpConfigModule</title>
<polygon fill="none" stroke="black" stroke-dasharray="1,5" points="8,-108.8 8,-233.8 166,-233.8 166,-108.8 8,-108.8"/>
</g>
<g id="clust16" class="cluster">
<title>cluster_HttpConfigModule_exports</title>
<polygon fill="none" stroke="black" points="16,-173.8 16,-225.8 158,-225.8 158,-173.8 16,-173.8"/>
</g>
<g id="clust19" class="cluster">
<title>cluster_MySqlConfigModule</title>
<polygon fill="none" stroke="black" stroke-dasharray="1,5" points="840,-108.8 840,-233.8 1010,-233.8 1010,-108.8 840,-108.8"/>
</g>
<g id="clust22" class="cluster">
<title>cluster_MySqlConfigModule_exports</title>
<polygon fill="none" stroke="black" points="848,-173.8 848,-225.8 1002,-225.8 1002,-173.8 848,-173.8"/>
</g>
<g id="clust37" class="cluster">
<title>cluster_PostgresSQLConfigModule</title>
<polygon fill="none" stroke="black" stroke-dasharray="1,5" points="1018,-108.8 1018,-233.8 1216,-233.8 1216,-108.8 1018,-108.8"/>
</g>
<g id="clust40" class="cluster">
<title>cluster_PostgresSQLConfigModule_exports</title>
<polygon fill="none" stroke="black" points="1026,-173.8 1026,-225.8 1208,-225.8 1208,-173.8 1026,-173.8"/>
</g>
<!-- AppConfigService  -->
<g id="node1" class="node">
<title>AppConfigService </title>
<polygon fill="#fb8072" stroke="black" points="698.48,-217.8 573.52,-217.8 573.52,-181.8 698.48,-181.8 698.48,-217.8"/>
<text text-anchor="middle" x="636" y="-195.6" font-family="Times,serif" font-size="14.00">AppConfigService </text>
</g>
<!-- ConfigService  -->
<g id="node2" class="node">
<title>ConfigService </title>
<polygon fill="#fb8072" stroke="black" points="816.37,-217.8 715.63,-217.8 715.63,-181.8 816.37,-181.8 816.37,-217.8"/>
<text text-anchor="middle" x="766" y="-195.6" font-family="Times,serif" font-size="14.00">ConfigService </text>
</g>
<!-- AppConfigModule -->
<g id="node3" class="node">
<title>AppConfigModule</title>
<polygon fill="#8dd3c7" stroke="black" points="707.05,-152.8 704.05,-156.8 683.05,-156.8 680.05,-152.8 584.95,-152.8 584.95,-116.8 707.05,-116.8 707.05,-152.8"/>
<text text-anchor="middle" x="646" y="-130.6" font-family="Times,serif" font-size="14.00">AppConfigModule</text>
</g>
<!-- AppConfigModule&#45;&gt;AppConfigService  -->
<g id="edge1" class="edge">
<title>AppConfigModule&#45;&gt;AppConfigService </title>
<path fill="none" stroke="black" stroke-dasharray="5,2" d="M641.48,-152.91C641.48,-152.91 641.48,-171.79 641.48,-171.79"/>
<polygon fill="black" stroke="black" points="637.98,-171.79 641.48,-181.79 644.98,-171.79 637.98,-171.79"/>
</g>
<!-- AppConfigModule&#45;&gt;ConfigService  -->
<g id="edge2" class="edge">
<title>AppConfigModule&#45;&gt;ConfigService </title>
<path fill="none" stroke="black" stroke-dasharray="5,2" d="M702.76,-152.91C702.76,-172.14 702.76,-199.8 702.76,-199.8 702.76,-199.8 705.56,-199.8 705.56,-199.8"/>
<polygon fill="black" stroke="black" points="705.56,-203.3 715.56,-199.8 705.56,-196.3 705.56,-203.3"/>
</g>
<!-- AppModule -->
<g id="node6" class="node">
<title>AppModule</title>
<polygon fill="#8dd3c7" stroke="black" points="472.66,-217.8 469.66,-221.8 448.66,-221.8 445.66,-217.8 389.34,-217.8 389.34,-181.8 472.66,-181.8 472.66,-217.8"/>
<text text-anchor="middle" x="431" y="-195.6" font-family="Times,serif" font-size="14.00">AppModule</text>
</g>
<!-- AppConfigModule&#45;&gt;AppModule -->
<g id="edge4" class="edge">
<title>AppConfigModule&#45;&gt;AppModule</title>
<path fill="none" stroke="black" d="M584.83,-134.8C567.82,-134.8 553.9,-134.8 553.9,-134.8 553.9,-134.8 553.9,-199.8 553.9,-199.8 553.9,-199.8 482.95,-199.8 482.95,-199.8"/>
<polygon fill="black" stroke="black" points="482.95,-196.3 472.95,-199.8 482.95,-203.3 482.95,-196.3"/>
</g>
<!-- AppConfigService -->
<g id="node4" class="node">
<title>AppConfigService</title>
<ellipse fill="#fdb462" stroke="black" cx="657" cy="-66.8" rx="83.4" ry="18"/>
<text text-anchor="middle" x="657" y="-62.6" font-family="Times,serif" font-size="14.00">AppConfigService</text>
</g>
<!-- AppConfigService&#45;&gt;AppConfigModule -->
<g id="edge3" class="edge">
<title>AppConfigService&#45;&gt;AppConfigModule</title>
<path fill="none" stroke="black" d="M646,-84.67C646,-84.67 646,-106.34 646,-106.34"/>
<polygon fill="black" stroke="black" points="642.5,-106.34 646,-116.34 649.5,-106.34 642.5,-106.34"/>
</g>
<!-- PostgresDatabaseProviderModule -->
<g id="node5" class="node">
<title>PostgresDatabaseProviderModule</title>
<polygon fill="#8dd3c7" stroke="black" points="534.02,-152.8 531.02,-156.8 510.02,-156.8 507.02,-152.8 327.98,-152.8 327.98,-116.8 534.02,-116.8 534.02,-152.8"/>
<text text-anchor="middle" x="431" y="-130.6" font-family="Times,serif" font-size="14.00">PostgresDatabaseProviderModule</text>
</g>
<!-- PostgresDatabaseProviderModule&#45;&gt;AppModule -->
<g id="edge5" class="edge">
<title>PostgresDatabaseProviderModule&#45;&gt;AppModule</title>
<path fill="none" stroke="black" d="M431,-152.91C431,-152.91 431,-171.79 431,-171.79"/>
<polygon fill="black" stroke="black" points="427.5,-171.79 431,-181.79 434.5,-171.79 427.5,-171.79"/>
</g>
<!-- AppService -->
<g id="node7" class="node">
<title>AppService</title>
<ellipse fill="#fdb462" stroke="black" cx="247" cy="-134.8" rx="56.75" ry="18"/>
<text text-anchor="middle" x="247" y="-130.6" font-family="Times,serif" font-size="14.00">AppService</text>
</g>
<!-- AppService&#45;&gt;AppModule -->
<g id="edge6" class="edge">
<title>AppService&#45;&gt;AppModule</title>
<path fill="none" stroke="black" d="M247,-152.91C247,-172.14 247,-199.8 247,-199.8 247,-199.8 379.25,-199.8 379.25,-199.8"/>
<polygon fill="black" stroke="black" points="379.25,-203.3 389.25,-199.8 379.25,-196.3 379.25,-203.3"/>
</g>
<!-- HttpConfigService  -->
<g id="node8" class="node">
<title>HttpConfigService </title>
<polygon fill="#fb8072" stroke="black" points="149.76,-217.8 24.24,-217.8 24.24,-181.8 149.76,-181.8 149.76,-217.8"/>
<text text-anchor="middle" x="87" y="-195.6" font-family="Times,serif" font-size="14.00">HttpConfigService </text>
</g>
<!-- HttpConfigModule -->
<g id="node9" class="node">
<title>HttpConfigModule</title>
<polygon fill="#8dd3c7" stroke="black" points="152.83,-152.8 149.83,-156.8 128.83,-156.8 125.83,-152.8 29.17,-152.8 29.17,-116.8 152.83,-116.8 152.83,-152.8"/>
<text text-anchor="middle" x="91" y="-130.6" font-family="Times,serif" font-size="14.00">HttpConfigModule</text>
</g>
<!-- HttpConfigModule&#45;&gt;ConfigService  -->
<g id="edge7" class="edge">
<title>HttpConfigModule&#45;&gt;ConfigService </title>
<path fill="none" stroke="black" stroke-dasharray="5,2" d="M109.53,-153.01C109.53,-158.35 109.53,-162.8 109.53,-162.8 109.53,-162.8 728.13,-162.8 728.13,-162.8 728.13,-162.8 728.13,-171.73 728.13,-171.73"/>
<polygon fill="black" stroke="black" points="724.63,-171.73 728.13,-181.73 731.63,-171.73 724.63,-171.73"/>
</g>
<!-- HttpConfigModule&#45;&gt;HttpConfigService  -->
<g id="edge8" class="edge">
<title>HttpConfigModule&#45;&gt;HttpConfigService </title>
<path fill="none" stroke="black" stroke-dasharray="5,2" d="M69.43,-152.91C69.43,-152.91 69.43,-171.79 69.43,-171.79"/>
<polygon fill="black" stroke="black" points="65.93,-171.79 69.43,-181.79 72.93,-171.79 65.93,-171.79"/>
</g>
<!-- MySqlConfigService  -->
<g id="node10" class="node">
<title>MySqlConfigService </title>
<polygon fill="#fb8072" stroke="black" points="994.49,-217.8 855.51,-217.8 855.51,-181.8 994.49,-181.8 994.49,-217.8"/>
<text text-anchor="middle" x="925" y="-195.6" font-family="Times,serif" font-size="14.00">MySqlConfigService </text>
</g>
<!-- MySqlConfigModule -->
<g id="node11" class="node">
<title>MySqlConfigModule</title>
<polygon fill="#8dd3c7" stroke="black" points="988.07,-152.8 985.07,-156.8 964.07,-156.8 961.07,-152.8 851.93,-152.8 851.93,-116.8 988.07,-116.8 988.07,-152.8"/>
<text text-anchor="middle" x="920" y="-130.6" font-family="Times,serif" font-size="14.00">MySqlConfigModule</text>
</g>
<!-- MySqlConfigModule&#45;&gt;ConfigService  -->
<g id="edge9" class="edge">
<title>MySqlConfigModule&#45;&gt;ConfigService </title>
<path fill="none" stroke="black" stroke-dasharray="5,2" d="M851.87,-134.8C810.53,-134.8 765.69,-134.8 765.69,-134.8 765.69,-134.8 765.69,-171.69 765.69,-171.69"/>
<polygon fill="black" stroke="black" points="762.19,-171.69 765.69,-181.69 769.19,-171.69 762.19,-171.69"/>
</g>
<!-- MySqlConfigModule&#45;&gt;MySqlConfigService  -->
<g id="edge10" class="edge">
<title>MySqlConfigModule&#45;&gt;MySqlConfigService </title>
<path fill="none" stroke="black" stroke-dasharray="5,2" d="M922.02,-152.91C922.02,-152.91 922.02,-171.79 922.02,-171.79"/>
<polygon fill="black" stroke="black" points="918.52,-171.79 922.02,-181.79 925.52,-171.79 918.52,-171.79"/>
</g>
<!-- PostgresSqlConfigService  -->
<g id="node12" class="node">
<title>PostgresSqlConfigService </title>
<polygon fill="#fb8072" stroke="black" points="1200.49,-217.8 1033.51,-217.8 1033.51,-181.8 1200.49,-181.8 1200.49,-217.8"/>
<text text-anchor="middle" x="1117" y="-195.6" font-family="Times,serif" font-size="14.00">PostgresSqlConfigService </text>
</g>
<!-- PostgresSQLConfigModule -->
<g id="node13" class="node">
<title>PostgresSQLConfigModule</title>
<polygon fill="#8dd3c7" stroke="black" points="1200.34,-152.8 1197.34,-156.8 1176.34,-156.8 1173.34,-152.8 1027.66,-152.8 1027.66,-116.8 1200.34,-116.8 1200.34,-152.8"/>
<text text-anchor="middle" x="1114" y="-130.6" font-family="Times,serif" font-size="14.00">PostgresSQLConfigModule</text>
</g>
<!-- PostgresSQLConfigModule&#45;&gt;ConfigService  -->
<g id="edge11" class="edge">
<title>PostgresSQLConfigModule&#45;&gt;ConfigService </title>
<path fill="none" stroke="black" stroke-dasharray="5,2" d="M1089.23,-152.91C1089.23,-162.7 1089.23,-172.8 1089.23,-172.8 1089.23,-172.8 790.94,-172.8 790.94,-172.8 790.94,-172.8 790.94,-173.68 790.94,-173.68"/>
<polygon fill="black" stroke="black" points="787.44,-171.64 790.94,-181.64 794.44,-171.64 787.44,-171.64"/>
</g>
<!-- PostgresSQLConfigModule&#45;&gt;PostgresSqlConfigService  -->
<g id="edge12" class="edge">
<title>PostgresSQLConfigModule&#45;&gt;PostgresSqlConfigService </title>
<path fill="none" stroke="black" stroke-dasharray="5,2" d="M1144.7,-152.91C1144.7,-152.91 1144.7,-171.79 1144.7,-171.79"/>
<polygon fill="black" stroke="black" points="1141.2,-171.79 1144.7,-181.79 1148.2,-171.79 1141.2,-171.79"/>
</g>
</g>
</svg>
