<?xml version="1.0" encoding="UTF-8" standalone="no"?>
<!DOCTYPE svg PUBLIC "-//W3C//DTD SVG 1.1//EN"
 "http://www.w3.org/Graphics/SVG/1.1/DTD/svg11.dtd">
<!-- Generated by graphviz version 5.0.0 (20220707.1540)
 -->
<!-- Title: dependencies Pages: 1 -->
<svg width="1232pt" height="182pt"
 viewBox="0.00 0.00 1232.00 181.80" xmlns="http://www.w3.org/2000/svg" xmlns:xlink="http://www.w3.org/1999/xlink">
<g id="graph0" class="graph" transform="scale(1 1) rotate(0) translate(4 177.8)">
<title>dependencies</title>
<polygon fill="white" stroke="transparent" points="-4,4 -4,-177.8 1228,-177.8 1228,4 -4,4"/>
<text text-anchor="middle" x="612" y="-8.2" font-family="sans-serif" font-size="14.00">dependencies</text>
<g id="clust1" class="cluster">
<title>cluster_AppConfigModule</title>
<polygon fill="none" stroke="black" stroke-dasharray="1,5" points="558,-40.8 558,-165.8 832,-165.8 832,-40.8 558,-40.8"/>
</g>
<g id="clust4" class="cluster">
<title>cluster_AppConfigModule_exports</title>
<polygon fill="none" stroke="black" points="566,-105.8 566,-157.8 824,-157.8 824,-105.8 566,-105.8"/>
</g>
<g id="clust7" class="cluster">
<title>cluster_AppModule</title>
<polygon fill="none" stroke="black" stroke-dasharray="1,5" points="174,-32.8 174,-157.8 550,-157.8 550,-32.8 174,-32.8"/>
</g>
<g id="clust9" class="cluster">
<title>cluster_AppModule_imports</title>
<polygon fill="none" stroke="black" points="320,-40.8 320,-92.8 542,-92.8 542,-40.8 320,-40.8"/>
</g>
<g id="clust12" class="cluster">
<title>cluster_AppModule_providers</title>
<polygon fill="none" stroke="black" points="182,-40.8 182,-92.8 312,-92.8 312,-40.8 182,-40.8"/>
</g>
<g id="clust13" class="cluster">
<title>cluster_HttpConfigModule</title>
<polygon fill="none" stroke="black" stroke-dasharray="1,5" points="8,-40.8 8,-165.8 166,-165.8 166,-40.8 8,-40.8"/>
</g>
<g id="clust16" class="cluster">
<title>cluster_HttpConfigModule_exports</title>
<polygon fill="none" stroke="black" points="16,-105.8 16,-157.8 158,-157.8 158,-105.8 16,-105.8"/>
</g>
<g id="clust19" class="cluster">
<title>cluster_MySqlConfigModule</title>
<polygon fill="none" stroke="black" stroke-dasharray="1,5" points="840,-40.8 840,-165.8 1010,-165.8 1010,-40.8 840,-40.8"/>
</g>
<g id="clust22" class="cluster">
<title>cluster_MySqlConfigModule_exports</title>
<polygon fill="none" stroke="black" points="848,-105.8 848,-157.8 1002,-157.8 1002,-105.8 848,-105.8"/>
</g>
<g id="clust37" class="cluster">
<title>cluster_PostgresSQLConfigModule</title>
<polygon fill="none" stroke="black" stroke-dasharray="1,5" points="1018,-40.8 1018,-165.8 1216,-165.8 1216,-40.8 1018,-40.8"/>
</g>
<g id="clust40" class="cluster">
<title>cluster_PostgresSQLConfigModule_exports</title>
<polygon fill="none" stroke="black" points="1026,-105.8 1026,-157.8 1208,-157.8 1208,-105.8 1026,-105.8"/>
</g>
<!-- AppConfigService  -->
<g id="node1" class="node">
<title>AppConfigService </title>
<polygon fill="#fb8072" stroke="black" points="698.48,-149.8 573.52,-149.8 573.52,-113.8 698.48,-113.8 698.48,-149.8"/>
<text text-anchor="middle" x="636" y="-127.6" font-family="Times,serif" font-size="14.00">AppConfigService </text>
</g>
<!-- ConfigService  -->
<g id="node2" class="node">
<title>ConfigService </title>
<polygon fill="#fb8072" stroke="black" points="816.37,-149.8 715.63,-149.8 715.63,-113.8 816.37,-113.8 816.37,-149.8"/>
<text text-anchor="middle" x="766" y="-127.6" font-family="Times,serif" font-size="14.00">ConfigService </text>
</g>
<!-- AppConfigModule -->
<g id="node3" class="node">
<title>AppConfigModule</title>
<polygon fill="#8dd3c7" stroke="black" points="697.05,-84.8 694.05,-88.8 673.05,-88.8 670.05,-84.8 574.95,-84.8 574.95,-48.8 697.05,-48.8 697.05,-84.8"/>
<text text-anchor="middle" x="636" y="-62.6" font-family="Times,serif" font-size="14.00">AppConfigModule</text>
</g>
<!-- AppConfigModule&#45;&gt;AppConfigService  -->
<g id="edge1" class="edge">
<title>AppConfigModule&#45;&gt;AppConfigService </title>
<path fill="none" stroke="black" stroke-dasharray="5,2" d="M636,-84.91C636,-84.91 636,-103.79 636,-103.79"/>
<polygon fill="black" stroke="black" points="632.5,-103.79 636,-113.79 639.5,-103.79 632.5,-103.79"/>
</g>
<!-- AppConfigModule&#45;&gt;ConfigService  -->
<g id="edge2" class="edge">
<title>AppConfigModule&#45;&gt;ConfigService </title>
<path fill="none" stroke="black" stroke-dasharray="5,2" d="M697.39,-72.8C726.9,-72.8 755.96,-72.8 755.96,-72.8 755.96,-72.8 755.96,-103.78 755.96,-103.78"/>
<polygon fill="black" stroke="black" points="752.46,-103.78 755.96,-113.78 759.46,-103.78 752.46,-103.78"/>
</g>
<!-- AppModule -->
<g id="node5" class="node">
<title>AppModule</title>
<polygon fill="#8dd3c7" stroke="black" points="472.66,-149.8 469.66,-153.8 448.66,-153.8 445.66,-149.8 389.34,-149.8 389.34,-113.8 472.66,-113.8 472.66,-149.8"/>
<text text-anchor="middle" x="431" y="-127.6" font-family="Times,serif" font-size="14.00">AppModule</text>
</g>
<!-- AppConfigModule&#45;&gt;AppModule -->
<g id="edge3" class="edge">
<title>AppConfigModule&#45;&gt;AppModule</title>
<path fill="none" stroke="black" d="M574.7,-66.8C562.84,-66.8 554.01,-66.8 554.01,-66.8 554.01,-66.8 554.01,-131.8 554.01,-131.8 554.01,-131.8 482.99,-131.8 482.99,-131.8"/>
<polygon fill="black" stroke="black" points="482.99,-128.3 472.99,-131.8 482.99,-135.3 482.99,-128.3"/>
</g>
<!-- PostgresDatabaseProviderModule -->
<g id="node4" class="node">
<title>PostgresDatabaseProviderModule</title>
<polygon fill="#8dd3c7" stroke="black" points="534.02,-84.8 531.02,-88.8 510.02,-88.8 507.02,-84.8 327.98,-84.8 327.98,-48.8 534.02,-48.8 534.02,-84.8"/>
<text text-anchor="middle" x="431" y="-62.6" font-family="Times,serif" font-size="14.00">PostgresDatabaseProviderModule</text>
</g>
<!-- PostgresDatabaseProviderModule&#45;&gt;AppModule -->
<g id="edge4" class="edge">
<title>PostgresDatabaseProviderModule&#45;&gt;AppModule</title>
<path fill="none" stroke="black" d="M431,-84.91C431,-84.91 431,-103.79 431,-103.79"/>
<polygon fill="black" stroke="black" points="427.5,-103.79 431,-113.79 434.5,-103.79 427.5,-103.79"/>
</g>
<!-- AppService -->
<g id="node6" class="node">
<title>AppService</title>
<ellipse fill="#fdb462" stroke="black" cx="247" cy="-66.8" rx="56.75" ry="18"/>
<text text-anchor="middle" x="247" y="-62.6" font-family="Times,serif" font-size="14.00">AppService</text>
</g>
<!-- AppService&#45;&gt;AppModule -->
<g id="edge5" class="edge">
<title>AppService&#45;&gt;AppModule</title>
<path fill="none" stroke="black" d="M247,-84.91C247,-104.14 247,-131.8 247,-131.8 247,-131.8 379.25,-131.8 379.25,-131.8"/>
<polygon fill="black" stroke="black" points="379.25,-135.3 389.25,-131.8 379.25,-128.3 379.25,-135.3"/>
</g>
<!-- HttpConfigService  -->
<g id="node7" class="node">
<title>HttpConfigService </title>
<polygon fill="#fb8072" stroke="black" points="149.76,-149.8 24.24,-149.8 24.24,-113.8 149.76,-113.8 149.76,-149.8"/>
<text text-anchor="middle" x="87" y="-127.6" font-family="Times,serif" font-size="14.00">HttpConfigService </text>
</g>
<!-- HttpConfigModule -->
<g id="node8" class="node">
<title>HttpConfigModule</title>
<polygon fill="#8dd3c7" stroke="black" points="152.83,-84.8 149.83,-88.8 128.83,-88.8 125.83,-84.8 29.17,-84.8 29.17,-48.8 152.83,-48.8 152.83,-84.8"/>
<text text-anchor="middle" x="91" y="-62.6" font-family="Times,serif" font-size="14.00">HttpConfigModule</text>
</g>
<!-- HttpConfigModule&#45;&gt;ConfigService  -->
<g id="edge6" class="edge">
<title>HttpConfigModule&#45;&gt;ConfigService </title>
<path fill="none" stroke="black" stroke-dasharray="5,2" d="M109.53,-85.01C109.53,-90.35 109.53,-94.8 109.53,-94.8 109.53,-94.8 735.89,-94.8 735.89,-94.8 735.89,-94.8 735.89,-103.73 735.89,-103.73"/>
<polygon fill="black" stroke="black" points="732.39,-103.73 735.89,-113.73 739.39,-103.73 732.39,-103.73"/>
</g>
<!-- HttpConfigModule&#45;&gt;HttpConfigService  -->
<g id="edge7" class="edge">
<title>HttpConfigModule&#45;&gt;HttpConfigService </title>
<path fill="none" stroke="black" stroke-dasharray="5,2" d="M69.43,-84.91C69.43,-84.91 69.43,-103.79 69.43,-103.79"/>
<polygon fill="black" stroke="black" points="65.93,-103.79 69.43,-113.79 72.93,-103.79 65.93,-103.79"/>
</g>
<!-- MySqlConfigService  -->
<g id="node9" class="node">
<title>MySqlConfigService </title>
<polygon fill="#fb8072" stroke="black" points="994.49,-149.8 855.51,-149.8 855.51,-113.8 994.49,-113.8 994.49,-149.8"/>
<text text-anchor="middle" x="925" y="-127.6" font-family="Times,serif" font-size="14.00">MySqlConfigService </text>
</g>
<!-- MySqlConfigModule -->
<g id="node10" class="node">
<title>MySqlConfigModule</title>
<polygon fill="#8dd3c7" stroke="black" points="988.07,-84.8 985.07,-88.8 964.07,-88.8 961.07,-84.8 851.93,-84.8 851.93,-48.8 988.07,-48.8 988.07,-84.8"/>
<text text-anchor="middle" x="920" y="-62.6" font-family="Times,serif" font-size="14.00">MySqlConfigModule</text>
</g>
<!-- MySqlConfigModule&#45;&gt;ConfigService  -->
<g id="edge8" class="edge">
<title>MySqlConfigModule&#45;&gt;ConfigService </title>
<path fill="none" stroke="black" stroke-dasharray="5,2" d="M851.81,-60.8C814.6,-60.8 776.04,-60.8 776.04,-60.8 776.04,-60.8 776.04,-103.52 776.04,-103.52"/>
<polygon fill="black" stroke="black" points="772.54,-103.52 776.04,-113.52 779.54,-103.52 772.54,-103.52"/>
</g>
<!-- MySqlConfigModule&#45;&gt;MySqlConfigService  -->
<g id="edge9" class="edge">
<title>MySqlConfigModule&#45;&gt;MySqlConfigService </title>
<path fill="none" stroke="black" stroke-dasharray="5,2" d="M922.02,-84.91C922.02,-84.91 922.02,-103.79 922.02,-103.79"/>
<polygon fill="black" stroke="black" points="918.52,-103.79 922.02,-113.79 925.52,-103.79 918.52,-103.79"/>
</g>
<!-- PostgresSqlConfigService  -->
<g id="node11" class="node">
<title>PostgresSqlConfigService </title>
<polygon fill="#fb8072" stroke="black" points="1200.49,-149.8 1033.51,-149.8 1033.51,-113.8 1200.49,-113.8 1200.49,-149.8"/>
<text text-anchor="middle" x="1117" y="-127.6" font-family="Times,serif" font-size="14.00">PostgresSqlConfigService </text>
</g>
<!-- PostgresSQLConfigModule -->
<g id="node12" class="node">
<title>PostgresSQLConfigModule</title>
<polygon fill="#8dd3c7" stroke="black" points="1200.34,-84.8 1197.34,-88.8 1176.34,-88.8 1173.34,-84.8 1027.66,-84.8 1027.66,-48.8 1200.34,-48.8 1200.34,-84.8"/>
<text text-anchor="middle" x="1114" y="-62.6" font-family="Times,serif" font-size="14.00">PostgresSQLConfigModule</text>
</g>
<!-- PostgresSQLConfigModule&#45;&gt;ConfigService  -->
<g id="edge10" class="edge">
<title>PostgresSQLConfigModule&#45;&gt;ConfigService </title>
<path fill="none" stroke="black" stroke-dasharray="5,2" d="M1089.23,-84.91C1089.23,-94.7 1089.23,-104.8 1089.23,-104.8 1089.23,-104.8 796.11,-104.8 796.11,-104.8 796.11,-104.8 796.11,-105.68 796.11,-105.68"/>
<polygon fill="black" stroke="black" points="792.61,-103.64 796.11,-113.64 799.61,-103.64 792.61,-103.64"/>
</g>
<!-- PostgresSQLConfigModule&#45;&gt;PostgresSqlConfigService  -->
<g id="edge11" class="edge">
<title>PostgresSQLConfigModule&#45;&gt;PostgresSqlConfigService </title>
<path fill="none" stroke="black" stroke-dasharray="5,2" d="M1144.7,-84.91C1144.7,-84.91 1144.7,-103.79 1144.7,-103.79"/>
<polygon fill="black" stroke="black" points="1141.2,-103.79 1144.7,-113.79 1148.2,-103.79 1141.2,-103.79"/>
</g>
</g>
</svg>
