<?xml version="1.0" encoding="UTF-8" standalone="no"?>
<!DOCTYPE svg PUBLIC "-//W3C//DTD SVG 1.1//EN"
 "http://www.w3.org/Graphics/SVG/1.1/DTD/svg11.dtd">
<!-- Generated by graphviz version 5.0.0 (20220707.1540)
 -->
<!-- Title: dependencies Pages: 1 -->
<svg width="312pt" height="174pt"
 viewBox="0.00 0.00 312.00 173.80" xmlns="http://www.w3.org/2000/svg" xmlns:xlink="http://www.w3.org/1999/xlink">
<g id="graph0" class="graph" transform="scale(1 1) rotate(0) translate(4 169.8)">
<title>dependencies</title>
<polygon fill="white" stroke="transparent" points="-4,4 -4,-169.8 308,-169.8 308,4 -4,4"/>
<text text-anchor="middle" x="152" y="-8.2" font-family="sans-serif" font-size="14.00">dependencies</text>
<g id="clust1" class="cluster">
<title>cluster_MySqlConfigModule</title>
<polygon fill="none" stroke="black" stroke-dasharray="1,5" points="8,-32.8 8,-157.8 296,-157.8 296,-32.8 8,-32.8"/>
</g>
<g id="clust4" class="cluster">
<title>cluster_MySqlConfigModule_exports</title>
<polygon fill="none" stroke="black" points="16,-97.8 16,-149.8 288,-149.8 288,-97.8 16,-97.8"/>
</g>
<!-- ConfigService  -->
<g id="node1" class="node">
<title>ConfigService </title>
<polygon fill="#fb8072" stroke="black" points="280.37,-141.8 179.63,-141.8 179.63,-105.8 280.37,-105.8 280.37,-141.8"/>
<text text-anchor="middle" x="230" y="-119.6" font-family="Times,serif" font-size="14.00">ConfigService </text>
</g>
<!-- MySqlConfigService  -->
<g id="node2" class="node">
<title>MySqlConfigService </title>
<polygon fill="#fb8072" stroke="black" points="162.49,-141.8 23.51,-141.8 23.51,-105.8 162.49,-105.8 162.49,-141.8"/>
<text text-anchor="middle" x="93" y="-119.6" font-family="Times,serif" font-size="14.00">MySqlConfigService </text>
</g>
<!-- MySqlConfigModule -->
<g id="node3" class="node">
<title>MySqlConfigModule</title>
<polygon fill="#8dd3c7" stroke="black" points="224.07,-76.8 221.07,-80.8 200.07,-80.8 197.07,-76.8 87.93,-76.8 87.93,-40.8 224.07,-40.8 224.07,-76.8"/>
<text text-anchor="middle" x="156" y="-54.6" font-family="Times,serif" font-size="14.00">MySqlConfigModule</text>
</g>
<!-- MySqlConfigModule&#45;&gt;ConfigService  -->
<g id="edge1" class="edge">
<title>MySqlConfigModule&#45;&gt;ConfigService </title>
<path fill="none" stroke="black" stroke-dasharray="5,2" d="M202.05,-76.91C202.05,-76.91 202.05,-95.79 202.05,-95.79"/>
<polygon fill="black" stroke="black" points="198.55,-95.79 202.05,-105.79 205.55,-95.79 198.55,-95.79"/>
</g>
<!-- MySqlConfigModule&#45;&gt;MySqlConfigService  -->
<g id="edge2" class="edge">
<title>MySqlConfigModule&#45;&gt;MySqlConfigService </title>
<path fill="none" stroke="black" stroke-dasharray="5,2" d="M124.98,-76.91C124.98,-76.91 124.98,-95.79 124.98,-95.79"/>
<polygon fill="black" stroke="black" points="121.48,-95.79 124.98,-105.79 128.48,-95.79 121.48,-95.79"/>
</g>
</g>
</svg>
