<?xml version="1.0" encoding="UTF-8" standalone="no"?>
<!DOCTYPE svg PUBLIC "-//W3C//DTD SVG 1.1//EN"
 "http://www.w3.org/Graphics/SVG/1.1/DTD/svg11.dtd">
<!-- Generated by graphviz version 5.0.0 (20220707.1540)
 -->
<!-- Title: dependencies Pages: 1 -->
<svg width="541pt" height="174pt"
 viewBox="0.00 0.00 541.00 173.80" xmlns="http://www.w3.org/2000/svg" xmlns:xlink="http://www.w3.org/1999/xlink">
<g id="graph0" class="graph" transform="scale(1 1) rotate(0) translate(4 169.8)">
<title>dependencies</title>
<polygon fill="white" stroke="transparent" points="-4,4 -4,-169.8 537,-169.8 537,4 -4,4"/>
<text text-anchor="middle" x="266.5" y="-8.2" font-family="sans-serif" font-size="14.00">dependencies</text>
<g id="clust1" class="cluster">
<title>cluster_AppModule</title>
<polygon fill="none" stroke="black" stroke-dasharray="1,5" points="8,-32.8 8,-157.8 525,-157.8 525,-32.8 8,-32.8"/>
</g>
<g id="clust3" class="cluster">
<title>cluster_AppModule_imports</title>
<polygon fill="none" stroke="black" points="154,-40.8 154,-92.8 517,-92.8 517,-40.8 154,-40.8"/>
</g>
<g id="clust6" class="cluster">
<title>cluster_AppModule_providers</title>
<polygon fill="none" stroke="black" points="16,-40.8 16,-92.8 146,-92.8 146,-40.8 16,-40.8"/>
</g>
<!-- AppConfigModule -->
<g id="node1" class="node">
<title>AppConfigModule</title>
<polygon fill="#8dd3c7" stroke="black" points="509.05,-84.8 506.05,-88.8 485.05,-88.8 482.05,-84.8 386.95,-84.8 386.95,-48.8 509.05,-48.8 509.05,-84.8"/>
<text text-anchor="middle" x="448" y="-62.6" font-family="Times,serif" font-size="14.00">AppConfigModule</text>
</g>
<!-- AppModule -->
<g id="node3" class="node">
<title>AppModule</title>
<polygon fill="#8dd3c7" stroke="black" points="306.66,-149.8 303.66,-153.8 282.66,-153.8 279.66,-149.8 223.34,-149.8 223.34,-113.8 306.66,-113.8 306.66,-149.8"/>
<text text-anchor="middle" x="265" y="-127.6" font-family="Times,serif" font-size="14.00">AppModule</text>
</g>
<!-- AppConfigModule&#45;&gt;AppModule -->
<g id="edge1" class="edge">
<title>AppConfigModule&#45;&gt;AppModule</title>
<path fill="none" stroke="black" d="M448,-84.91C448,-104.14 448,-131.8 448,-131.8 448,-131.8 316.98,-131.8 316.98,-131.8"/>
<polygon fill="black" stroke="black" points="316.98,-128.3 306.98,-131.8 316.98,-135.3 316.98,-128.3"/>
</g>
<!-- PostgresDatabaseProviderModule -->
<g id="node2" class="node">
<title>PostgresDatabaseProviderModule</title>
<polygon fill="#8dd3c7" stroke="black" points="368.02,-84.8 365.02,-88.8 344.02,-88.8 341.02,-84.8 161.98,-84.8 161.98,-48.8 368.02,-48.8 368.02,-84.8"/>
<text text-anchor="middle" x="265" y="-62.6" font-family="Times,serif" font-size="14.00">PostgresDatabaseProviderModule</text>
</g>
<!-- PostgresDatabaseProviderModule&#45;&gt;AppModule -->
<g id="edge2" class="edge">
<title>PostgresDatabaseProviderModule&#45;&gt;AppModule</title>
<path fill="none" stroke="black" d="M265,-84.91C265,-84.91 265,-103.79 265,-103.79"/>
<polygon fill="black" stroke="black" points="261.5,-103.79 265,-113.79 268.5,-103.79 261.5,-103.79"/>
</g>
<!-- AppService -->
<g id="node4" class="node">
<title>AppService</title>
<ellipse fill="#fdb462" stroke="black" cx="81" cy="-66.8" rx="56.75" ry="18"/>
<text text-anchor="middle" x="81" y="-62.6" font-family="Times,serif" font-size="14.00">AppService</text>
</g>
<!-- AppService&#45;&gt;AppModule -->
<g id="edge3" class="edge">
<title>AppService&#45;&gt;AppModule</title>
<path fill="none" stroke="black" d="M81,-84.91C81,-104.14 81,-131.8 81,-131.8 81,-131.8 213.25,-131.8 213.25,-131.8"/>
<polygon fill="black" stroke="black" points="213.25,-135.3 223.25,-131.8 213.25,-128.3 213.25,-135.3"/>
</g>
</g>
</svg>
