<?xml version="1.0" encoding="UTF-8" standalone="no"?>
<!DOCTYPE svg PUBLIC "-//W3C//DTD SVG 1.1//EN"
 "http://www.w3.org/Graphics/SVG/1.1/DTD/svg11.dtd">
<!-- Generated by graphviz version 5.0.0 (20220707.1540)
 -->
<!-- Title: dependencies Pages: 1 -->
<svg width="340pt" height="174pt"
 viewBox="0.00 0.00 340.00 173.80" xmlns="http://www.w3.org/2000/svg" xmlns:xlink="http://www.w3.org/1999/xlink">
<g id="graph0" class="graph" transform="scale(1 1) rotate(0) translate(4 169.8)">
<title>dependencies</title>
<polygon fill="white" stroke="transparent" points="-4,4 -4,-169.8 336,-169.8 336,4 -4,4"/>
<text text-anchor="middle" x="166" y="-8.2" font-family="sans-serif" font-size="14.00">dependencies</text>
<g id="clust1" class="cluster">
<title>cluster_PostgresSQLConfigModule</title>
<polygon fill="none" stroke="black" stroke-dasharray="1,5" points="8,-32.8 8,-157.8 324,-157.8 324,-32.8 8,-32.8"/>
</g>
<g id="clust4" class="cluster">
<title>cluster_PostgresSQLConfigModule_exports</title>
<polygon fill="none" stroke="black" points="16,-97.8 16,-149.8 316,-149.8 316,-97.8 16,-97.8"/>
</g>
<!-- ConfigService  -->
<g id="node1" class="node">
<title>ConfigService </title>
<polygon fill="#fb8072" stroke="black" points="308.37,-141.8 207.63,-141.8 207.63,-105.8 308.37,-105.8 308.37,-141.8"/>
<text text-anchor="middle" x="258" y="-119.6" font-family="Times,serif" font-size="14.00">ConfigService </text>
</g>
<!-- PostgresSqlConfigService  -->
<g id="node2" class="node">
<title>PostgresSqlConfigService </title>
<polygon fill="#fb8072" stroke="black" points="190.49,-141.8 23.51,-141.8 23.51,-105.8 190.49,-105.8 190.49,-141.8"/>
<text text-anchor="middle" x="107" y="-119.6" font-family="Times,serif" font-size="14.00">PostgresSqlConfigService </text>
</g>
<!-- PostgresSQLConfigModule -->
<g id="node3" class="node">
<title>PostgresSQLConfigModule</title>
<polygon fill="#8dd3c7" stroke="black" points="254.34,-76.8 251.34,-80.8 230.34,-80.8 227.34,-76.8 81.66,-76.8 81.66,-40.8 254.34,-40.8 254.34,-76.8"/>
<text text-anchor="middle" x="168" y="-54.6" font-family="Times,serif" font-size="14.00">PostgresSQLConfigModule</text>
</g>
<!-- PostgresSQLConfigModule&#45;&gt;ConfigService  -->
<g id="edge1" class="edge">
<title>PostgresSQLConfigModule&#45;&gt;ConfigService </title>
<path fill="none" stroke="black" stroke-dasharray="5,2" d="M230.99,-76.91C230.99,-76.91 230.99,-95.79 230.99,-95.79"/>
<polygon fill="black" stroke="black" points="227.49,-95.79 230.99,-105.79 234.49,-95.79 227.49,-95.79"/>
</g>
<!-- PostgresSQLConfigModule&#45;&gt;PostgresSqlConfigService  -->
<g id="edge2" class="edge">
<title>PostgresSQLConfigModule&#45;&gt;PostgresSqlConfigService </title>
<path fill="none" stroke="black" stroke-dasharray="5,2" d="M136.04,-76.91C136.04,-76.91 136.04,-95.79 136.04,-95.79"/>
<polygon fill="black" stroke="black" points="132.54,-95.79 136.04,-105.79 139.54,-95.79 132.54,-95.79"/>
</g>
</g>
</svg>
